<svg width="300" height="229" viewBox="0 0 300 229" fill="none" xmlns="http://www.w3.org/2000/svg">
<g clip-path="url(#clip0_16_2917)">
<path d="M274.94 164.076L284.317 163.018C286.349 158.518 287.247 153.592 286.932 148.668C281.835 155.822 271.052 155.708 263.886 160.811C261.664 162.42 259.833 164.506 258.531 166.915C257.228 169.323 256.487 171.993 256.361 174.726L253.265 180.633C257.675 181.113 262.137 180.636 266.344 179.235C270.551 177.834 274.403 175.541 277.634 172.515C279.429 170.8 281.001 168.866 282.311 166.76C278.622 165.647 274.94 164.076 274.94 164.076Z" fill="#F2F2F2"/>
<path d="M267.801 150.634L275.719 145.524C275.522 140.594 274.119 135.786 271.631 131.519C270.274 140.185 260.571 144.87 256.444 152.619C255.176 155.045 254.472 157.725 254.385 160.459C254.298 163.194 254.831 165.912 255.943 168.414L255.818 175.075C259.98 173.548 263.76 171.14 266.898 168.018C270.035 164.896 272.456 161.134 273.992 156.991C274.831 154.658 275.371 152.23 275.6 149.763C271.799 150.406 267.801 150.634 267.801 150.634Z" fill="#F2F2F2"/>
<path d="M233.424 213.174C249.117 213.174 261.839 200.51 261.839 184.888C261.839 169.266 249.117 156.601 233.424 156.601C217.73 156.601 205.008 169.266 205.008 184.888C205.008 200.51 217.73 213.174 233.424 213.174Z" fill="white"/>
<path d="M233.424 213.52C227.735 213.52 222.174 211.84 217.444 208.694C212.714 205.548 209.028 201.077 206.851 195.845C204.674 190.613 204.104 184.856 205.214 179.302C206.324 173.748 209.063 168.646 213.086 164.642C217.108 160.638 222.233 157.911 227.812 156.806C233.392 155.702 239.175 156.268 244.431 158.436C249.686 160.603 254.178 164.272 257.339 168.981C260.499 173.689 262.186 179.225 262.186 184.888C262.177 192.479 259.144 199.756 253.752 205.124C248.36 210.492 241.049 213.511 233.424 213.52ZM233.424 156.947C227.872 156.947 222.446 158.586 217.83 161.656C213.214 164.726 209.616 169.09 207.492 174.195C205.367 179.301 204.812 184.919 205.895 190.339C206.978 195.759 209.651 200.738 213.576 204.645C217.502 208.553 222.503 211.214 227.948 212.292C233.393 213.37 239.036 212.817 244.165 210.702C249.294 208.587 253.678 205.006 256.762 200.411C259.846 195.816 261.492 190.414 261.492 184.888C261.484 177.48 258.524 170.378 253.262 165.14C248 159.902 240.865 156.955 233.424 156.947Z" fill="#3F3D56"/>
<path d="M231.296 196.193C231.236 196.193 231.175 196.191 231.115 196.188C230.579 196.162 230.056 196.021 229.581 195.775C229.105 195.529 228.689 195.184 228.36 194.763L223.611 188.686C223.311 188.302 223.09 187.863 222.961 187.395C222.831 186.926 222.796 186.437 222.856 185.954C222.917 185.472 223.072 185.006 223.313 184.584C223.555 184.161 223.877 183.79 224.263 183.492L224.434 183.359C224.819 183.061 225.26 182.84 225.731 182.711C226.202 182.582 226.693 182.547 227.178 182.607C227.663 182.668 228.131 182.822 228.555 183.063C228.98 183.303 229.353 183.624 229.652 184.008C229.892 184.315 230.196 184.566 230.542 184.745C230.889 184.924 231.27 185.027 231.66 185.046C232.05 185.065 232.439 185 232.801 184.855C233.164 184.71 233.49 184.489 233.759 184.207L243.401 174.075C244.079 173.363 245.014 172.948 245.999 172.922C246.985 172.895 247.94 173.259 248.657 173.932L248.815 174.082C249.17 174.417 249.455 174.817 249.654 175.261C249.853 175.705 249.962 176.183 249.975 176.669C249.988 177.155 249.905 177.639 249.73 178.093C249.556 178.547 249.293 178.962 248.957 179.315L233.994 195.036C233.647 195.402 233.229 195.693 232.765 195.891C232.301 196.09 231.801 196.193 231.296 196.193Z" fill="#1ABC9C"/>
<path d="M218.559 221.036L214.618 221.473L210.884 206.253L216.7 205.608L218.559 221.036Z" fill="#A0616A"/>
<path d="M244.522 152.611C244.4 152.489 244.267 152.371 244.135 152.259C243.118 151.419 242.055 150.636 240.952 149.913C239.703 149.084 238.298 148.239 236.709 147.366C235.94 146.943 235.127 146.512 234.27 146.071C233.841 145.85 233.4 145.628 232.946 145.404C232.926 145.393 232.907 145.382 232.886 145.373L232.755 145.307L223.191 153.165L222.512 153.697L224.273 155.859C224.273 155.859 224.12 157.579 224.124 157.58L222.375 161.924L222.356 161.933L216.125 164.763L209.704 167.681L206.256 169.25C205.456 169.612 204.737 170.13 204.14 170.772C203.543 171.414 203.08 172.167 202.779 172.989C202.462 173.842 202.319 174.75 202.358 175.659C202.396 176.568 202.617 177.461 203.006 178.284C203.083 178.452 203.17 178.62 203.261 178.782L204.694 187.751C205.55 193.116 207.215 198.321 209.631 203.191L211.82 211.587L212.153 211.421L217.103 208.953L218.411 208.302L218.657 202.661C218.685 202.018 218.69 201.371 218.667 200.726C218.633 199.67 218.531 198.617 218.363 197.574L215.525 179.982C216.028 179.778 216.525 179.572 217.015 179.366C219.287 178.42 221.437 177.464 223.467 176.497C230.067 173.357 235.444 170.097 239.837 166.566C241.072 165.575 242.23 164.561 243.311 163.524C243.709 163.145 244.096 162.762 244.472 162.376C244.562 162.287 244.649 162.199 244.735 162.108C245.509 161.3 246.066 160.312 246.357 159.234C246.648 158.156 246.662 157.022 246.399 155.937C246.104 154.673 245.453 153.519 244.522 152.611Z" fill="#2F2E41"/>
<path d="M218.238 218.371L213.972 218.841L213.303 218.914L213.738 221.436L208.781 226.257C208.535 226.495 208.373 226.805 208.317 227.141C208.262 227.478 208.315 227.823 208.471 228.127C208.627 228.431 208.876 228.677 209.182 228.83C209.488 228.983 209.836 229.035 210.173 228.977L217.214 227.777L217.997 225.075L218.9 227.489L221.552 227.037L219.275 218.258L218.238 218.371Z" fill="#2F2E41"/>
<path d="M222.298 131.047L225.951 127.191L220.798 115.968L220.032 112.026C219.932 111.514 219.699 111.037 219.356 110.642C219.013 110.248 218.573 109.95 218.078 109.778C217.583 109.606 217.052 109.567 216.537 109.664C216.022 109.761 215.541 109.99 215.143 110.33C214.554 110.833 214.184 111.544 214.111 112.314C214.038 113.083 214.269 113.851 214.754 114.455L217.599 117.995L222.298 131.047Z" fill="#A0616A"/>
<path d="M225.951 125.464L221.788 129.608L222.584 135.667C222.838 136.458 223.292 137.171 223.904 137.735C224.515 138.3 225.263 138.698 226.074 138.89C227.075 139.127 228.125 139.041 229.073 138.644C230.021 138.247 230.817 137.559 231.346 136.681L240.71 120.704C241.374 119.604 241.578 118.288 241.281 117.039C240.983 115.789 240.207 114.706 239.117 114.019C238.531 113.649 237.873 113.407 237.187 113.307C236.5 113.207 235.801 113.252 235.133 113.44C234.465 113.627 233.845 113.952 233.312 114.394C232.779 114.836 232.345 115.385 232.039 116.004L226.324 128.127L225.951 125.464Z" fill="#E6E6E6"/>
<path d="M221.757 186.616C221.542 186.834 221.326 187.049 221.108 187.265C220.674 187.697 220.234 188.124 219.792 188.547C219.57 188.758 219.345 188.97 219.123 189.179L219.125 189.187L219.11 189.193L219.105 189.197L218.735 189.387L217.813 188.036L217.388 187.414L216.788 186.532L215.687 184.92L209.892 176.429L215.089 173.759L215.498 174.551L215.501 174.551L215.703 174.944L219.504 182.274L220.28 183.773L220.304 183.818L220.77 184.713L221.173 185.488L221.621 186.355L221.757 186.616Z" fill="#A0616A"/>
<path d="M220.683 183.864L217.066 186.163L216.498 186.523L218.009 188.593L215.704 195.1C215.59 195.421 215.582 195.771 215.682 196.097C215.781 196.423 215.983 196.71 216.258 196.914C216.532 197.118 216.865 197.229 217.208 197.231C217.55 197.234 217.885 197.127 218.162 196.926L223.943 192.75L223.445 189.983L225.328 191.75L227.505 190.177L221.563 183.306L220.683 183.864Z" fill="#2F2E41"/>
<path d="M95.0794 56.5444L97.8495 47.5639C94.5166 43.9124 90.3386 41.1259 85.6783 39.4465C90.2314 46.9554 85.8195 56.7508 87.658 65.3284C88.252 67.9993 89.4422 70.5029 91.1403 72.6537C92.8385 74.8045 95.0011 76.5473 97.4678 77.753L101.671 82.9377C103.875 79.1051 105.218 74.8424 105.607 70.4433C105.997 66.0443 105.424 61.6135 103.927 57.4562C103.064 55.1323 101.911 52.9258 100.495 50.8887C97.9966 53.812 95.0794 56.5444 95.0794 56.5444Z" fill="#F2F2F2"/>
<path d="M79.848 57.6917L78.3039 48.424C73.6848 46.6354 68.697 45.9962 63.7735 46.562C71.2127 51.2614 71.6524 61.9874 77.1408 68.8485C78.8691 70.9754 81.056 72.6878 83.5395 73.859C86.023 75.0301 88.7394 75.6299 91.4874 75.6139L97.5727 78.3883C97.828 73.9796 97.1201 69.5681 95.4978 65.4579C93.8755 61.3477 91.3774 57.6364 88.1755 54.5799C86.3622 52.8828 84.3414 51.4199 82.1609 50.2255C81.2348 53.951 79.848 57.6917 79.848 57.6917Z" fill="#F2F2F2"/>
<path d="M132.864 30.4739L135.709 26.9337C136.194 26.3301 136.425 25.5625 136.352 24.7929C136.28 24.0233 135.91 23.3119 135.32 22.8088C134.922 22.4694 134.442 22.2398 133.927 22.143C133.412 22.0463 132.88 22.0857 132.386 22.2575C131.891 22.4292 131.45 22.7272 131.107 23.1217C130.764 23.5162 130.531 23.9933 130.432 24.5055L129.665 28.4474L126.757 36.2639L130.247 38.0008L132.864 30.4739Z" fill="#FFB8B8"/>
<path d="M124.14 40.6066L118.424 28.4837C118.118 27.864 117.685 27.3154 117.152 26.8735C116.619 26.4317 115.998 26.1066 115.33 25.9193C114.663 25.732 113.963 25.6867 113.277 25.7864C112.59 25.8862 111.933 26.1286 111.346 26.4981C110.257 27.1851 109.48 28.2689 109.183 29.5182C108.885 30.7674 109.09 32.083 109.753 33.1839L119.117 49.161C119.646 50.0388 120.442 50.7261 121.39 51.1231C122.338 51.5202 123.389 51.6064 124.389 51.3693C125.2 51.177 125.948 50.7793 126.559 50.2147C127.171 49.6501 127.625 48.9378 127.879 48.1469L131.41 37.1326L126.757 34.8166L124.14 40.6066Z" fill="#2F2E41"/>
<path d="M134.924 36.7049L131.18 36.3924C130.592 36.3427 130.048 36.0629 129.667 35.6145C129.287 35.166 129.1 34.5856 129.149 34.0004L130.589 16.8985C130.639 16.3135 130.92 15.772 131.371 15.393C131.821 15.014 132.404 14.8283 132.992 14.8767L136.737 15.1892C137.324 15.2389 137.868 15.5187 138.249 15.9671C138.63 16.4155 138.816 16.996 138.768 17.5812L137.327 34.6831C137.277 35.2681 136.996 35.8096 136.546 36.1886C136.095 36.5676 135.512 36.7533 134.924 36.7049Z" fill="#3F3D56"/>
<path d="M132.481 15.7121C132.164 15.686 131.85 15.7861 131.607 15.9903C131.364 16.1946 131.213 16.4864 131.186 16.8016L129.745 33.9035C129.719 34.2188 129.82 34.5316 130.025 34.7733C130.23 35.0149 130.523 35.1657 130.84 35.1925L134.584 35.505C134.901 35.5311 135.215 35.431 135.458 35.2268C135.701 35.0225 135.852 34.7307 135.879 34.4155L137.319 17.3136C137.346 16.9983 137.245 16.6855 137.04 16.4438C136.835 16.2022 136.542 16.0514 136.225 16.0246L132.481 15.7121Z" fill="#1ABC9C"/>
<path d="M124.82 52.0977H109.243V67.6046H124.82V52.0977Z" fill="#FFB8B8"/>
<path d="M127.85 50.7716C128.311 50.7716 128.685 50.3996 128.685 49.9408C128.685 49.482 128.311 49.1101 127.85 49.1101C127.389 49.1101 127.016 49.482 127.016 49.9408C127.016 50.3996 127.389 50.7716 127.85 50.7716Z" fill="#2F2E41"/>
<path d="M141.754 117.599L145.909 117.598L147.886 101.646L141.754 101.646L141.754 117.599Z" fill="#FFB6B6"/>
<path d="M140.724 115.558L147.292 115.168V117.969L153.536 122.262C153.845 122.474 154.077 122.779 154.199 123.132C154.321 123.484 154.327 123.867 154.216 124.223C154.104 124.579 153.881 124.89 153.579 125.112C153.277 125.333 152.912 125.452 152.537 125.452H144.718L143.37 122.681L142.844 125.452H139.896L140.724 115.558Z" fill="#2F2E41"/>
<path d="M110.92 128.987L114.483 131.115L124.425 118.45L119.167 115.308L110.92 128.987Z" fill="#FFB6B6"/>
<path d="M111.092 126.709L116.925 129.74L115.476 132.141L118.611 139.021C118.766 139.361 118.807 139.741 118.73 140.106C118.652 140.471 118.459 140.802 118.18 141.05C117.9 141.298 117.548 141.451 117.175 141.486C116.801 141.521 116.427 141.436 116.105 141.244L109.401 137.238L109.678 134.172L107.794 136.278L105.267 134.768L111.092 126.709Z" fill="#2F2E41"/>
<path d="M27.3783 127.598C27.3373 127.598 27.2963 127.598 27.2549 127.596C26.772 127.579 26.3004 127.445 25.8803 127.207C25.4603 126.97 25.1041 126.634 24.8422 126.23C22.8804 123.311 20.473 120.715 17.7067 118.536C16.0321 117.203 14.2822 115.964 12.59 114.766C8.22436 111.676 4.11303 108.766 1.83081 104.745C-3.14509 95.976 2.71477 83.7625 11.0861 78.2852C20.4757 72.1421 32.8263 71.1785 44.7741 71.0522C46.0158 71.0391 47.2583 71.0327 48.5014 71.0327C70.0288 71.0409 91.5109 72.9962 112.683 76.8746C119.723 78.1675 127.092 79.7515 133.014 83.5954C138.901 87.4166 142.479 93.434 142.13 98.926C141.62 106.943 133.082 112.934 125.308 114.5C117.898 115.992 110.2 114.984 102.05 113.916C100.251 113.681 98.3903 113.437 96.5507 113.226C76.5578 110.925 38.9999 118.016 37.4109 118.319L35.8345 118.619L29.7179 126.454C29.4428 126.812 29.0885 127.101 28.6827 127.299C28.2769 127.498 27.8305 127.6 27.3783 127.598Z" fill="#1ABC9C"/>
<path d="M116.409 88.4867H31.9058C31.4181 88.4867 30.9505 88.2938 30.6057 87.9506C30.2609 87.6074 30.0672 87.1418 30.0672 86.6564C30.0672 86.171 30.2609 85.7055 30.6057 85.3622C30.9505 85.019 31.4181 84.8262 31.9058 84.8262H116.409C116.897 84.8262 117.364 85.019 117.709 85.3622C118.054 85.7055 118.247 86.171 118.247 86.6564C118.247 87.1418 118.054 87.6074 117.709 87.9506C117.364 88.2938 116.897 88.4867 116.409 88.4867Z" fill="white"/>
<path d="M116.409 99.7208H31.9058C31.6642 99.7213 31.4249 99.6743 31.2015 99.5827C30.9782 99.491 30.7751 99.3565 30.6041 99.1867C30.433 99.0169 30.2972 98.8152 30.2044 98.5931C30.1117 98.371 30.0639 98.133 30.0636 97.8925C30.0633 97.652 30.1107 97.4138 30.203 97.1915C30.2952 96.9693 30.4306 96.7673 30.6013 96.5971C30.7721 96.427 30.9748 96.292 31.198 96.1999C31.4211 96.1078 31.6603 96.0603 31.9019 96.0603H116.409C116.896 96.061 117.363 96.2541 117.707 96.5973C118.052 96.9404 118.245 97.4056 118.245 97.8905C118.245 98.3755 118.052 98.8407 117.707 99.1838C117.363 99.527 116.896 99.7201 116.409 99.7208Z" fill="white"/>
<path d="M41.7534 110.955H31.9058C31.4186 110.954 30.9516 110.761 30.6073 110.418C30.2631 110.075 30.0697 109.61 30.0697 109.125C30.0697 108.64 30.2631 108.175 30.6073 107.831C30.9516 107.488 31.4186 107.295 31.9058 107.294H41.7534C42.2406 107.295 42.7076 107.488 43.0518 107.831C43.3961 108.175 43.5894 108.64 43.5894 109.125C43.5894 109.61 43.3961 110.075 43.0518 110.418C42.7076 110.761 42.2406 110.954 41.7534 110.955Z" fill="white"/>
<path d="M125.372 63.1653L108.717 61.1868L109.196 64.3301C109.196 64.3301 97.9181 73.3764 105.639 83.3576L109.366 86.9761L109.023 88.6766H111.416L111.673 90.7282L121.97 99.2125L122.561 100.948H124.256L123.428 102.922L115.783 120.621L122.117 123.56L133.781 101.301L130.793 94.5918L120.045 81.05L136.692 87.5957L136.976 89.0326L138.506 88.744L138.211 90.8588L141.459 107.498L148.34 106.589L147.633 85.8851C147.58 84.7534 147.227 83.6559 146.609 82.7039C145.992 81.752 145.133 80.9796 144.119 80.4652C140.592 78.6617 127.562 73.6507 127.562 73.6507L125.372 63.1653Z" fill="#2F2E41"/>
<path d="M118.701 26.899L115.565 22.8869L111.092 22.6938L110.646 26.4673L108.43 27.4845C106.217 35.8533 105.875 44.6035 107.429 53.118C107.726 53.3964 107.943 53.7486 108.057 54.1383C108.172 54.5281 108.18 54.9412 108.081 55.3351L107.937 55.9053L107.951 55.9262C108.422 56.6669 108.582 57.5625 108.396 58.4197L104.344 65.5862C112.948 69.0769 119.255 62.5672 125.099 54.0361L128.715 41.5752L118.701 26.899Z" fill="#3F3D56"/>
<path d="M128.127 49.9682L128.971 41.5612L117.761 25.0415L117.3 25.3513L128.398 41.7056L127.573 49.9129L128.127 49.9682Z" fill="#2F2E41"/>
<path d="M115.784 22.5576C120.351 22.5576 124.054 18.8719 124.054 14.3254C124.054 9.77892 120.351 6.09326 115.784 6.09326C111.217 6.09326 107.514 9.77892 107.514 14.3254C107.514 18.8719 111.217 22.5576 115.784 22.5576Z" fill="#FFB8B8"/>
<path d="M116.847 4.28557L115.81 4.31835L115.457 4.32948L111.508 4.45421C108.008 4.56478 105.271 7.83226 105.396 11.7523C102.839 14.4759 103.737 17.7583 105.946 21.2528C109.744 21.6017 113.474 22.4698 117.033 23.8326L117.464 21.6983L118.536 24.4573C119.424 24.8514 120.306 25.2851 121.181 25.7585C120.028 21.0986 119.466 16.431 120.039 12.7733L121.848 12.7161L121.785 10.7461L122.461 12.6968L125.74 12.5932C125.704 11.4665 125.446 10.3578 124.979 9.33054C124.513 8.30326 123.848 7.37747 123.022 6.60603C122.196 5.8346 121.226 5.23262 120.167 4.83447C119.107 4.43632 117.979 4.24981 116.847 4.28557Z" fill="#2F2E41"/>
<path d="M109.707 7.75346C111.858 7.75346 113.602 6.01779 113.602 3.87673C113.602 1.73567 111.858 0 109.707 0C107.556 0 105.813 1.73567 105.813 3.87673C105.813 6.01779 107.556 7.75346 109.707 7.75346Z" fill="#2F2E41"/>
<path d="M135.293 34.6179L138.138 31.0778C138.623 30.4742 138.853 29.7066 138.781 28.937C138.708 28.1673 138.338 27.4559 137.748 26.9529C137.351 26.6134 136.87 26.3838 136.355 26.2871C135.84 26.1903 135.309 26.2298 134.814 26.4015C134.319 26.5733 133.878 26.8713 133.536 27.2657C133.193 27.6602 132.96 28.1374 132.86 28.6495L132.094 32.5914L129.186 40.4079L132.675 42.1449L135.293 34.6179Z" fill="#FFB8B8"/>
<path d="M126.568 44.7504L120.853 32.6275C120.547 32.0078 120.113 31.4592 119.58 31.0173C119.047 30.5755 118.426 30.2504 117.759 30.0631C117.091 29.8758 116.391 29.8305 115.705 29.9302C115.019 30.03 114.361 30.2724 113.775 30.6419C112.685 31.3289 111.909 32.4127 111.611 33.662C111.313 34.9112 111.518 36.2268 112.182 37.3277L121.546 53.3048C122.075 54.1826 122.871 54.8699 123.819 55.2669C124.767 55.664 125.817 55.7502 126.817 55.5131C127.629 55.3208 128.376 54.9231 128.988 54.3585C129.599 53.7939 130.054 53.0816 130.307 52.2907L133.839 41.2764L129.186 38.9604L126.568 44.7504Z" fill="#2F2E41"/>
<path d="M246.767 159.627C246.407 160.203 246.04 160.776 245.669 161.343C244.981 162.4 244.274 163.441 243.549 164.466C243.549 164.469 243.546 164.469 243.543 164.471C243.12 164.862 242.653 165.201 242.151 165.484C242.13 165.499 242.106 165.51 242.085 165.523C241.715 165.726 241.322 165.884 240.913 165.991C240.766 166.028 240.616 166.064 240.469 166.101C239.938 166.227 239.413 166.334 238.89 166.428C237.96 166.593 237.04 166.71 236.126 166.784C236.052 166.791 235.979 166.797 235.905 166.802C232.145 167.077 228.485 166.635 224.665 165.91C222.778 165.554 220.852 165.128 218.858 164.686C218.206 164.539 217.552 164.396 216.89 164.252C216.84 164.241 216.787 164.228 216.735 164.218C215.789 164.011 214.827 163.807 213.842 163.606C212.601 163.352 213.237 163.337 211.908 163.104C211.908 163.104 214.975 166.205 215.485 167.55C216.052 169.203 216.502 170.511 215.553 173.233L218.499 178.99L208.258 180.719C202.614 169.709 198.103 162.459 200.118 158.189C200.126 157.991 200.142 157.789 200.168 157.59C200.275 156.687 200.562 155.813 201.012 155.021C201.461 154.229 202.065 153.534 202.788 152.976C203.48 152.438 204.273 152.042 205.121 151.811C205.968 151.58 206.853 151.519 207.725 151.632L209.735 151.891L225.324 151.137L225.936 148.652L226.049 148.61L229.641 147.3L242.064 142.767L242.096 142.757L242.913 142.458L243.01 142.615C243.039 142.663 243.068 142.71 243.094 142.757C243.902 144.198 244.559 145.718 245.057 147.292C245.893 149.864 246.582 152.481 247.12 155.131C247.143 155.246 247.164 155.351 247.183 155.445L247.19 155.474C247.198 155.518 247.204 155.547 247.206 155.555C247.493 156.742 247.293 158.191 246.767 159.627Z" fill="#2F2E41"/>
<path d="M244.146 111.296L244.057 106.339L236.167 105.426L235.34 109.611L227.048 117.368C221.153 124.542 225.437 129.49 225.694 130.225L226.423 139.272L226.881 142.415L225.09 151.017L247.693 155.844C248.416 149.897 247.611 144.371 242.892 139.923L245.276 132.538C246.485 130.609 247.243 128.435 247.494 126.176L247.58 125.404C249.687 118.869 248.438 116.669 244.146 111.296Z" fill="#E6E6E6"/>
<path d="M255.215 95.8038C255.22 95.932 255.223 96.0601 255.223 96.1857C255.221 97.571 254.889 98.9361 254.255 100.169C253.622 101.403 252.704 102.469 251.577 103.282C250.45 104.095 249.146 104.631 247.771 104.846C246.396 105.061 244.99 104.949 243.667 104.519L242.046 103.993C242.033 103.988 242.017 103.985 242.004 103.98L239.332 103.112C239.323 102.999 239.325 102.886 239.337 102.774C235.351 101.08 240.861 95.5109 242.23 91.3285C242.443 90.6772 235.125 91.1637 235.472 90.6066C235.395 90.5674 235.319 90.5281 235.248 90.4889C236.484 88.547 238.312 87.0494 240.464 86.2146C242.615 85.3798 244.979 85.2516 247.209 85.8488C247.267 85.8619 247.327 85.8802 247.385 85.8959C252.577 86.024 255.304 89.6257 255.304 94.3025C255.304 94.8042 255.274 95.3055 255.215 95.8038Z" fill="#2F2E41"/>
<path d="M250.717 97.6451C250.02 99.7689 248.505 101.53 246.504 102.542C244.503 103.554 242.18 103.734 240.046 103.041C239.804 102.963 239.568 102.874 239.337 102.774C237.395 101.946 235.835 100.424 234.963 98.5082C234.091 96.5925 233.971 94.4213 234.626 92.4217C234.833 91.785 235.117 91.1756 235.472 90.6065C236.559 88.8529 238.255 87.5571 240.238 86.9644C242.221 86.3718 244.354 86.5234 246.232 87.3906C248.111 88.2578 249.604 89.7804 250.431 91.6701C251.257 93.5599 251.359 95.6857 250.717 97.6451Z" fill="#A0616A"/>
<path d="M242.044 103.992C242.03 103.989 242.016 103.984 242.003 103.979L239.331 103.112C239.324 102.998 234.419 106.23 234.433 106.116C234.509 105.243 240.036 100.981 240.861 99.9899C241.395 99.3569 241.766 98.6042 241.943 97.7966C242.12 96.989 242.096 96.1508 241.875 95.3541C241.654 94.5575 241.241 93.8264 240.673 93.2238C240.105 92.6212 239.398 92.1652 238.613 91.8951C238.589 91.8891 238.566 91.881 238.544 91.8709C238.027 91.6914 237.531 91.5083 237.066 91.3253C236.837 90.3756 236.719 90.6899 236.167 89.8852C236.268 90.6173 235.335 91.1699 235.321 91.9089C235.13 91.8226 234.95 91.7328 234.776 91.643C234.7 91.6016 234.627 91.5636 234.554 91.5256C234.019 91.2781 233.552 90.9062 233.191 90.4412C234.527 86.3559 239.637 83.0855 243.741 84.4219L245.291 84.9227C247.247 85.5547 248.872 86.9316 249.812 88.7525C250.943 89.6158 251.846 90.7407 252.441 92.0298C255.834 98.8157 249.281 106.306 242.044 103.992Z" fill="#2F2E41"/>
<path d="M253.265 92.6362C255.297 92.6362 256.944 90.9967 256.944 88.9743C256.944 86.952 255.297 85.3125 253.265 85.3125C251.234 85.3125 249.587 86.952 249.587 88.9743C249.587 90.9967 251.234 92.6362 253.265 92.6362Z" fill="#2F2E41"/>
<path d="M300 96.4432C299.22 99.9711 297.66 103.281 295.432 106.133C293.204 108.984 290.365 111.305 287.122 112.926C286.71 113.13 286.29 113.32 285.867 113.496C285.905 111.788 285.412 110.11 284.455 108.692C284.61 109.842 284.629 111.006 284.51 112.16C284.445 112.821 284.335 113.478 284.181 114.125C281.459 115.018 278.601 115.428 275.737 115.337C275.573 114.07 275.113 112.859 274.394 111.8C274.55 112.95 274.568 114.114 274.45 115.268C271.571 115.035 268.758 114.285 266.148 113.054C264.791 112.412 263.459 111.607 262.585 110.391C261.423 108.772 261.229 106.634 261.513 104.666C261.798 102.694 262.509 100.812 263.005 98.8848C263.501 96.9578 263.782 94.8961 263.199 92.9932C262.62 91.087 260.993 89.3913 258.998 89.2428C258.089 89.1738 257.177 89.4224 256.268 89.3395C255.359 89.2532 254.374 88.6489 254.353 87.7406L255.224 86.3316C255.591 83.8659 256.854 81.4209 259.019 80.1673C261.18 78.9103 264.288 79.1796 265.832 81.1412C267.133 82.7919 267.085 85.085 267.511 87.1397C268.503 91.9123 272.337 95.7525 276.791 97.7762C281.249 99.7964 286.266 100.221 291.164 100.138C292.843 100.107 294.55 100.017 296.146 99.4891C297.745 98.9573 299.237 97.9351 300 96.4432Z" fill="#2F2E41"/>
<path d="M216.573 118.451L215.132 101.349C215.084 100.764 215.27 100.184 215.651 99.7352C216.032 99.2868 216.576 99.007 217.163 98.9573L220.908 98.6448C221.495 98.5963 222.078 98.782 222.529 99.1611C222.979 99.5401 223.26 100.082 223.31 100.667L224.751 117.768C224.8 118.354 224.613 118.934 224.232 119.383C223.852 119.831 223.308 120.111 222.72 120.16L218.976 120.473C218.388 120.521 217.805 120.336 217.354 119.957C216.904 119.578 216.623 119.036 216.573 118.451Z" fill="#3F3D56"/>
<path d="M217.675 99.7929C217.358 99.8197 217.065 99.9705 216.86 100.212C216.655 100.454 216.554 100.767 216.58 101.082L218.021 118.184C218.048 118.499 218.199 118.791 218.442 118.995C218.685 119.199 218.999 119.299 219.316 119.273L223.06 118.961C223.377 118.934 223.67 118.783 223.875 118.542C224.08 118.3 224.181 117.987 224.155 117.672L222.714 100.57C222.687 100.255 222.536 99.9629 222.293 99.7586C222.05 99.5544 221.736 99.4543 221.419 99.4804L217.675 99.7929Z" fill="#1ABC9C"/>
<path d="M223.988 124.319L227.633 122.934L225.516 114.87L225.145 110.872C225.097 110.352 224.913 109.855 224.611 109.428C224.309 109.002 223.9 108.662 223.424 108.442C222.949 108.223 222.424 108.131 221.902 108.177C221.38 108.222 220.879 108.403 220.45 108.702C219.813 109.145 219.374 109.816 219.225 110.575C219.076 111.333 219.229 112.12 219.652 112.768L222.131 116.571L223.988 124.319Z" fill="#A0616A"/>
<path d="M227.777 121.494L222.917 123.34L225.336 134.648C225.51 135.46 225.891 136.214 226.444 136.836C226.996 137.458 227.701 137.927 228.489 138.199C229.461 138.533 230.515 138.551 231.497 138.249C232.48 137.947 233.34 137.342 233.954 136.52L244.86 121.544C245.63 120.513 245.964 119.224 245.792 117.952C245.62 116.68 244.955 115.525 243.939 114.734C243.392 114.308 242.762 114.002 242.089 113.835C241.416 113.669 240.715 113.645 240.032 113.765C239.349 113.886 238.699 114.148 238.125 114.536C237.55 114.923 237.064 115.426 236.698 116.013L229.806 127.513L227.777 121.494Z" fill="#E6E6E6"/>
<path opacity="0.2" d="M223.824 127.581L226.281 137.513L226.79 138.13C227.194 138.62 227.71 139.005 228.295 139.254C228.879 139.504 229.515 139.61 230.149 139.564C230.784 139.517 231.398 139.32 231.939 138.989C232.481 138.657 232.935 138.201 233.263 137.658L241.049 124.771L234.029 134.441C233.635 134.983 233.11 135.417 232.502 135.702C231.894 135.987 231.223 136.114 230.552 136.07C229.882 136.027 229.233 135.815 228.667 135.454C228.101 135.093 227.637 134.595 227.317 134.007L223.824 127.581Z" fill="black"/>
</g>
<defs>
<clipPath id="clip0_16_2917">
<rect width="300" height="229" fill="white"/>
</clipPath>
</defs>
</svg>
