<svg width="300" height="222" viewBox="0 0 300 222" fill="none" xmlns="http://www.w3.org/2000/svg">
<g clip-path="url(#clip0_16_2873)">
<path d="M299.624 13.8036H0.375517C0.27364 13.8036 0.175936 13.7632 0.103898 13.6913C0.0318611 13.6194 -0.00860596 13.5218 -0.00860596 13.4201C-0.00860596 13.3184 0.0318611 13.2209 0.103898 13.1489C0.175936 13.077 0.27364 13.0366 0.375517 13.0366H299.624C299.726 13.0366 299.824 13.077 299.896 13.1489C299.968 13.2209 300.008 13.3184 300.008 13.4201C300.008 13.5218 299.968 13.6194 299.896 13.6913C299.824 13.7632 299.726 13.8036 299.624 13.8036Z" fill="#CACACA"/>
<path d="M8.83147 8.43567C11.1139 8.43567 12.9641 6.54728 12.9641 4.21784C12.9641 1.88839 11.1139 0 8.83147 0C6.54909 0 4.69885 1.88839 4.69885 4.21784C4.69885 6.54728 6.54909 8.43567 8.83147 8.43567Z" fill="#3F3D56"/>
<path d="M23.1072 8.43567C25.3896 8.43567 27.2398 6.54728 27.2398 4.21784C27.2398 1.88839 25.3896 0 23.1072 0C20.8248 0 18.9745 1.88839 18.9745 4.21784C18.9745 6.54728 20.8248 8.43567 23.1072 8.43567Z" fill="#3F3D56"/>
<path d="M37.3832 8.43567C39.6656 8.43567 41.5159 6.54728 41.5159 4.21784C41.5159 1.88839 39.6656 0 37.3832 0C35.1008 0 33.2506 1.88839 33.2506 4.21784C33.2506 6.54728 35.1008 8.43567 37.3832 8.43567Z" fill="#3F3D56"/>
<path d="M291.069 2.57944H280.927C280.724 2.57944 280.528 2.49863 280.384 2.35479C280.24 2.21094 280.159 2.01585 280.159 1.81243C280.159 1.609 280.24 1.41391 280.384 1.27006C280.528 1.12622 280.724 1.04541 280.927 1.04541H291.069C291.273 1.04541 291.469 1.12622 291.613 1.27006C291.757 1.41391 291.838 1.609 291.838 1.81243C291.838 2.01585 291.757 2.21094 291.613 2.35479C291.469 2.49863 291.273 2.57944 291.069 2.57944Z" fill="#3F3D56"/>
<path d="M291.069 5.45591H280.927C280.724 5.45591 280.528 5.37509 280.384 5.23125C280.24 5.08741 280.159 4.89232 280.159 4.68889C280.159 4.48547 280.24 4.29037 280.384 4.14653C280.528 4.00268 280.724 3.92188 280.927 3.92188H291.069C291.273 3.92187 291.469 4.00268 291.613 4.14653C291.757 4.29037 291.838 4.48547 291.838 4.68889C291.838 4.89232 291.757 5.08741 291.613 5.23125C291.469 5.37509 291.273 5.45591 291.069 5.45591Z" fill="#3F3D56"/>
<path d="M291.069 8.3314H280.927C280.724 8.3314 280.528 8.25059 280.384 8.10674C280.24 7.9629 280.159 7.76781 280.159 7.56438C280.159 7.36096 280.24 7.16587 280.384 7.02202C280.528 6.87818 280.724 6.79736 280.927 6.79736H291.069C291.273 6.79736 291.469 6.87818 291.613 7.02202C291.757 7.16587 291.838 7.36096 291.838 7.56438C291.838 7.76781 291.757 7.9629 291.613 8.10674C291.469 8.25059 291.273 8.3314 291.069 8.3314Z" fill="#3F3D56"/>
<path d="M161.997 74.8087C162.892 75.3243 163.636 76.0642 164.156 76.9552C164.676 77.8461 164.954 78.8572 164.962 79.8884C164.971 80.9196 164.709 81.935 164.203 82.8343C163.698 83.7335 162.966 84.4854 162.08 85.0154C161.194 85.5454 160.185 85.8351 159.152 85.856C158.119 85.8769 157.099 85.6282 156.192 85.1345C155.286 84.6407 154.524 83.9191 153.982 83.0411C153.441 82.163 153.138 81.159 153.105 80.1283L153.102 79.9364L153.105 79.7444C153.138 78.7219 153.436 77.7254 153.97 76.8521C154.503 75.9787 155.255 75.2584 156.15 74.7613C157.046 74.2642 158.055 74.0073 159.08 74.0156C160.105 74.0239 161.11 74.2971 161.997 74.8087ZM160.93 81.2882C160.874 81.2338 160.808 81.1908 160.736 81.1618C160.664 81.1327 160.587 81.1182 160.509 81.119C160.431 81.1197 160.354 81.1358 160.282 81.1663C160.211 81.1967 160.146 81.241 160.091 81.2965C159.953 81.4372 159.788 81.5491 159.607 81.6254C159.425 81.7018 159.229 81.7411 159.032 81.7411C158.835 81.7411 158.639 81.7018 158.457 81.6254C158.276 81.5491 158.111 81.4372 157.973 81.2965C157.863 81.1844 157.712 81.1205 157.555 81.119C157.398 81.1174 157.247 81.1783 157.134 81.2882C157.022 81.3981 156.958 81.5481 156.957 81.7051C156.955 81.8621 157.016 82.0132 157.126 82.1253C157.375 82.3785 157.671 82.5796 157.998 82.7169C158.326 82.8541 158.677 82.9249 159.032 82.9249C159.387 82.9249 159.738 82.8541 160.066 82.7169C160.393 82.5796 160.69 82.3785 160.938 82.1253C160.993 82.0698 161.036 82.0041 161.065 81.932C161.094 81.8599 161.108 81.7828 161.108 81.7051C161.107 81.6273 161.091 81.5505 161.06 81.479C161.03 81.4075 160.985 81.3426 160.93 81.2882ZM157.259 78.1583L157.184 78.1624C157.033 78.1794 156.895 78.2535 156.797 78.3694C156.699 78.4853 156.65 78.6341 156.659 78.7854C156.667 78.9366 156.734 79.0786 156.845 79.1823C156.955 79.2859 157.102 79.3433 157.253 79.3426L157.328 79.3384C157.479 79.3214 157.618 79.2474 157.715 79.1315C157.813 79.0156 157.863 78.8667 157.854 78.7155C157.845 78.5643 157.778 78.4222 157.668 78.3186C157.557 78.2149 157.411 78.1576 157.259 78.1583ZM160.817 78.1583L160.742 78.1624C160.591 78.1794 160.453 78.2535 160.355 78.3694C160.257 78.4853 160.208 78.6341 160.217 78.7854C160.226 78.9366 160.292 79.0786 160.403 79.1823C160.513 79.2859 160.66 79.3433 160.811 79.3426L160.887 79.3384C161.037 79.3214 161.176 79.2474 161.274 79.1315C161.371 79.0156 161.421 78.8667 161.412 78.7155C161.403 78.5643 161.336 78.4222 161.226 78.3186C161.115 78.2149 160.969 78.1576 160.817 78.1583Z" fill="#1ABC9C"/>
<path d="M225.025 192.092L224.923 192.087H219.929C219.778 192.088 219.631 192.033 219.518 191.933C219.404 191.833 219.33 191.696 219.312 191.546L219.306 191.473V185.592C219.307 185.484 219.337 185.377 219.392 185.284C219.447 185.19 219.525 185.113 219.619 185.059C219.884 184.909 220.108 184.695 220.271 184.438C220.433 184.18 220.529 183.886 220.55 183.582L220.555 183.458V182.84C220.557 182.596 220.606 182.355 220.701 182.129C220.795 181.904 220.934 181.7 221.108 181.529C221.281 181.357 221.487 181.221 221.714 181.129C221.94 181.037 222.183 180.99 222.427 180.991C222.903 180.989 223.361 181.168 223.708 181.492C224.056 181.815 224.266 182.26 224.297 182.733L224.299 182.84V185.307H225.548C226.005 185.305 226.447 185.47 226.789 185.772C227.132 186.073 227.352 186.49 227.408 186.942L227.418 187.049L227.42 187.156L227.408 187.277L226.78 190.38C226.546 191.374 225.853 192.093 225.047 192.093L225.025 192.092ZM217.548 192.087C217.235 192.089 216.933 191.973 216.702 191.762C216.471 191.551 216.329 191.26 216.304 190.949L216.299 190.857V186.54C216.301 186.227 216.42 185.926 216.635 185.698C216.849 185.47 217.142 185.331 217.455 185.309L217.548 185.306H218.173C218.325 185.306 218.472 185.361 218.586 185.462C218.7 185.562 218.773 185.701 218.792 185.852L218.797 185.923V191.471C218.796 191.623 218.739 191.769 218.638 191.882C218.536 191.995 218.396 192.067 218.245 192.084L218.173 192.086L217.548 192.087Z" fill="#1ABC9C"/>
<path d="M201.684 189.544C184.756 189.544 166.361 187.033 148.089 182.203C125.493 176.231 104.776 167.216 88.1759 156.134L88.6674 155.4C105.189 166.428 125.813 175.402 148.316 181.349C168.651 186.724 189.138 189.215 207.555 188.558L207.587 189.44C205.642 189.51 203.674 189.545 201.684 189.544Z" fill="#090814"/>
<path d="M199.15 74.8343C193.652 73.0472 187.998 71.3831 182.342 69.8884C149.8 61.287 117.811 58.2332 89.8314 61.0587L89.7424 60.18C117.826 57.3455 149.925 60.4049 182.568 69.0348C188.238 70.5343 193.91 72.2026 199.424 73.9949L199.15 74.8343Z" fill="#090814"/>
<path d="M50.0308 143.549C36.4674 130.218 30.7386 116.31 33.8998 104.389C37.9551 89.0896 55.9785 78.5115 83.3452 75.3669L83.4463 76.2446C56.4599 79.3452 38.7136 89.6857 34.7567 104.615C31.6803 116.217 37.3258 129.821 50.653 142.92L50.0308 143.549Z" fill="#090814"/>
<path d="M233.981 184.065L233.697 183.229C248.837 178.118 258.307 169.885 261.082 159.42C264.61 146.115 256.945 130.677 239.502 115.948C221.969 101.144 196.686 88.8603 168.309 81.3603L168.534 80.5063C197.034 88.0393 222.44 100.387 240.071 115.274C257.79 130.235 265.555 145.994 261.935 159.646C259.082 170.411 249.415 178.855 233.981 184.065Z" fill="#090814"/>
<path d="M83.4294 186.543C50.1667 171.814 24.5352 152.705 11.2568 132.736L11.9939 132.249C25.1803 152.08 50.677 171.075 83.7872 185.737L83.4294 186.543Z" fill="#090814"/>
<path d="M215.558 148.141C217.512 148.141 219.097 146.559 219.097 144.608C219.097 142.656 217.512 141.075 215.558 141.075C213.604 141.075 212.019 142.656 212.019 144.608C212.019 146.559 213.604 148.141 215.558 148.141Z" fill="#E6E6E6"/>
<path d="M149.716 50.1488C151.67 50.1488 153.255 48.5671 153.255 46.6159C153.255 44.6647 151.67 43.083 149.716 43.083C147.762 43.083 146.178 44.6647 146.178 46.6159C146.178 48.5671 147.762 50.1488 149.716 50.1488Z" fill="#E6E6E6"/>
<path d="M75.5662 182.132C75.5662 183.031 75.5959 183.931 75.659 184.822C75.7258 185.888 75.8407 186.946 75.9969 187.998C76.5201 191.536 77.5201 194.988 78.9696 198.26L79.1919 198.747L79.3046 198.991C79.3421 199.072 79.3823 199.154 79.4195 199.232C79.4713 199.339 79.5197 199.443 79.5697 199.546C79.6327 199.676 79.6958 199.805 79.7623 199.935C79.7698 199.949 79.7769 199.968 79.7882 199.986C79.8438 200.099 79.8956 200.204 79.9549 200.316C79.966 200.34 79.9785 200.364 79.9925 200.386C80.0555 200.512 80.122 200.642 80.1888 200.768C80.2639 200.901 80.3334 201.038 80.4074 201.171C80.5854 201.5 80.7705 201.826 80.9597 202.152C81.0153 202.248 81.0724 202.344 81.1302 202.44C81.182 202.529 81.2338 202.618 81.2894 202.707C81.327 202.766 81.3645 202.829 81.402 202.888C81.4614 202.988 81.5207 203.084 81.5838 203.184C81.7208 203.403 81.8616 203.621 81.9991 203.839H82.0028C82.0659 203.939 82.1328 204.039 82.1992 204.136V204.139C82.3956 204.435 82.5995 204.731 82.8034 205.024C82.8044 205.024 82.8053 205.024 82.806 205.025C82.8067 205.025 82.8071 205.026 82.8071 205.027C82.9701 205.264 83.1406 205.494 83.3077 205.723V205.727C83.4203 205.871 83.5262 206.019 83.6377 206.164C83.7267 206.282 83.8194 206.404 83.9118 206.523C83.9302 206.549 83.9527 206.571 83.9711 206.598V206.602C83.997 206.635 84.023 206.665 84.0489 206.698C84.4419 207.201 84.8472 207.693 85.2647 208.175L85.3315 208.252C85.3537 208.278 85.3796 208.304 85.4021 208.334C85.4397 208.374 85.4727 208.415 85.5095 208.456C85.5463 208.497 85.5801 208.537 85.6169 208.578C87.7939 211.026 90.2624 213.2 92.9675 215.051C93.3272 215.299 93.694 215.538 94.0609 215.772C94.1536 215.832 94.2464 215.891 94.3387 215.946C94.3646 215.965 94.3943 215.984 94.4202 216.002C94.472 216.031 94.5205 216.061 94.5704 216.094C94.6204 216.128 94.6669 216.154 94.7187 216.183C94.9151 216.305 95.1153 216.424 95.3154 216.542C95.3635 216.572 95.4156 216.602 95.4656 216.631C95.5155 216.661 95.5658 216.687 95.6158 216.716C95.6158 216.72 95.6158 216.72 95.6195 216.72H95.6233V216.724H95.627C95.8754 216.868 96.1274 217.009 96.3833 217.146C96.5203 217.221 96.6611 217.296 96.8023 217.368C97.1211 217.541 97.4437 217.708 97.7662 217.867C97.8811 217.923 97.9997 217.98 98.1146 218.037C98.2111 218.082 98.3073 218.13 98.4038 218.174C98.4334 218.189 98.4593 218.2 98.4853 218.215C98.5667 218.253 98.6445 218.29 98.7263 218.328C98.8153 218.368 98.9043 218.409 98.9892 218.45C99.0894 218.494 99.1855 218.539 99.2858 218.579C99.6564 218.746 100.031 218.905 100.405 219.056C101.747 219.606 103.118 220.08 104.512 220.478C104.575 220.496 104.642 220.515 104.709 220.533C105.305 220.699 105.906 220.851 106.511 220.988C107.567 221.232 108.634 221.432 109.71 221.588H109.717L110.103 221.643C110.114 221.643 110.125 221.647 110.14 221.647C110.14 221.651 110.14 221.651 110.144 221.647L110.57 221.703C110.58 221.706 110.59 221.707 110.6 221.706C110.733 221.725 110.871 221.74 111.004 221.754L111.438 221.799L111.771 221.832C111.781 221.835 111.791 221.837 111.801 221.836C111.901 221.843 112.001 221.854 112.101 221.862H112.116L112.376 221.884C113.41 221.965 114.448 222.002 115.5 222.002C116.639 222.002 117.769 221.958 118.885 221.862H118.896L119.611 221.795C119.674 221.787 119.734 221.784 119.797 221.777C119.808 221.777 119.823 221.773 119.834 221.773C119.853 221.769 119.872 221.769 119.894 221.765C119.904 221.766 119.914 221.764 119.923 221.762C120.005 221.754 120.086 221.743 120.172 221.736L120.449 221.702C120.542 221.691 120.635 221.676 120.727 221.665C120.749 221.661 120.768 221.661 120.79 221.657C120.857 221.65 120.924 221.639 120.991 221.628L121.087 221.616C121.154 221.605 121.217 221.598 121.283 221.587H121.287C123.321 221.295 125.329 220.844 127.292 220.237C127.396 220.204 127.5 220.174 127.603 220.141C127.607 220.141 127.611 220.137 127.615 220.137C127.644 220.126 127.678 220.119 127.707 220.108C127.985 220.019 128.26 219.926 128.533 219.83C128.911 219.704 129.284 219.568 129.66 219.427C129.76 219.386 129.86 219.349 129.96 219.308C130.164 219.231 130.364 219.149 130.564 219.068C130.905 218.931 131.246 218.786 131.584 218.638C131.899 218.498 132.21 218.357 132.523 218.209C132.53 218.205 132.541 218.205 132.548 218.198C132.619 218.165 132.689 218.131 132.756 218.098H132.76C134.467 217.28 136.113 216.341 137.686 215.289C138.19 214.952 138.687 214.604 139.176 214.245C139.569 213.953 139.955 213.657 140.34 213.353C142.242 211.843 144.003 210.163 145.6 208.335V208.331C145.715 208.205 145.822 208.076 145.933 207.946C145.952 207.928 145.967 207.909 145.981 207.895C146.052 207.809 146.119 207.728 146.189 207.647V207.643C146.282 207.536 146.375 207.425 146.463 207.313C146.485 207.288 146.504 207.265 146.523 207.243V207.239C146.598 207.15 146.667 207.062 146.741 206.969C146.779 206.925 146.812 206.88 146.849 206.836V206.832C147.067 206.558 147.278 206.284 147.49 206.003C147.545 205.928 147.602 205.853 147.66 205.774C147.927 205.415 148.186 205.048 148.439 204.682V204.678C148.535 204.542 148.626 204.401 148.724 204.264L149.002 203.842C149.095 203.694 149.19 203.55 149.284 203.402L149.295 203.379C149.388 203.239 149.48 203.091 149.569 202.946C149.64 202.828 149.71 202.713 149.78 202.599C149.825 202.521 149.873 202.443 149.917 202.362C149.935 202.337 149.951 202.311 149.965 202.284L150.277 201.74C150.399 201.529 150.518 201.315 150.636 201.1C150.681 201.011 150.729 200.922 150.777 200.833C150.796 200.804 150.811 200.774 150.825 200.744C150.881 200.641 150.938 200.533 150.988 200.426C151.039 200.319 151.101 200.215 151.155 200.108C151.209 200.001 151.262 199.897 151.314 199.79C151.355 199.708 151.392 199.627 151.433 199.545C151.436 199.539 151.44 199.533 151.444 199.527C151.462 199.486 151.482 199.449 151.496 199.412C151.5 199.407 151.504 199.401 151.507 199.394C151.548 199.313 151.585 199.228 151.626 199.146C151.678 199.039 151.726 198.928 151.776 198.82C151.809 198.745 151.847 198.67 151.88 198.591C151.928 198.484 151.98 198.376 152.024 198.265C152.076 198.153 152.124 198.043 152.173 197.928C152.187 197.9 152.199 197.872 152.21 197.843C152.236 197.791 152.254 197.739 152.277 197.687C152.336 197.55 152.396 197.41 152.451 197.273C152.518 197.117 152.581 196.958 152.639 196.802C152.698 196.658 152.754 196.51 152.809 196.362L152.832 196.31C153.695 194.039 154.35 191.694 154.789 189.305V189.301C155.036 187.936 155.213 186.56 155.319 185.177C155.323 185.1 155.33 185.027 155.333 184.952C155.4 184.015 155.43 183.078 155.43 182.132C155.43 181.714 155.422 181.3 155.412 180.885C155.153 172.217 152.057 163.871 146.597 157.126C146.478 156.978 146.36 156.83 146.237 156.682C146.115 156.534 145.989 156.389 145.867 156.245C141.803 151.494 136.678 147.763 130.906 145.352C125.133 142.941 118.873 141.919 112.632 142.366C106.391 142.814 100.342 144.719 94.9736 147.929C89.6051 151.139 85.0673 155.563 81.7257 160.845C81.544 161.134 81.3626 161.426 81.1884 161.719C81.0142 162.011 80.8399 162.311 80.6695 162.611C77.3131 168.57 75.5553 175.294 75.5662 182.132Z" fill="#F2F2F2"/>
<path d="M99.7871 160.256C99.7578 160.251 99.7285 160.247 99.6996 160.241C99.8222 160.165 99.9377 160.079 100.045 159.982L99.7871 160.256Z" fill="white"/>
<path d="M110.879 194.765H119.427L119.959 204.563L109.851 203.778L110.879 194.765Z" fill="#FFB9B9"/>
<path d="M94.3767 216.055C94.7601 216.264 95.1483 216.465 95.5362 216.655C95.6744 216.721 95.8171 216.788 95.9553 216.859C96.0713 216.913 96.1873 216.972 96.303 217.024C96.3405 217.042 96.3698 217.055 96.401 217.073C96.499 217.118 96.5928 217.163 96.6909 217.207C96.7979 217.256 96.9049 217.305 97.0074 217.354C97.1279 217.407 97.2439 217.461 97.3641 217.51C97.8102 217.71 98.2604 217.901 98.711 218.084C100.325 218.745 101.975 219.316 103.653 219.794C103.728 219.816 103.809 219.839 103.889 219.861C104.607 220.061 105.33 220.243 106.057 220.408C107.328 220.702 108.611 220.943 109.906 221.13H109.915L110.379 221.196C110.392 221.196 110.405 221.201 110.423 221.201C110.423 221.205 110.423 221.205 110.428 221.201L110.941 221.268C110.953 221.271 110.965 221.273 110.978 221.272C111.139 221.295 111.304 221.312 111.464 221.33L111.986 221.383L112.388 221.424C112.399 221.428 112.411 221.429 112.423 221.428C112.544 221.437 112.664 221.45 112.785 221.459H112.803L113.115 221.486C114.359 221.584 115.608 221.628 116.874 221.628C118.244 221.628 119.604 221.575 120.946 221.459H120.96L121.82 221.379C121.895 221.37 121.968 221.365 122.043 221.357C122.057 221.357 122.075 221.352 122.088 221.352C122.11 221.348 122.133 221.348 122.159 221.343C122.172 221.344 122.184 221.342 122.195 221.339C122.293 221.33 122.392 221.317 122.496 221.308L122.83 221.268C122.943 221.254 123.053 221.236 123.165 221.223C123.191 221.218 123.214 221.218 123.24 221.214C123.32 221.205 123.4 221.192 123.48 221.177L123.596 221.163C123.677 221.15 123.753 221.141 123.833 221.126H123.838C126.285 220.774 128.701 220.23 131.063 219.5C131.188 219.46 131.312 219.425 131.438 219.385C130.862 216.703 129.677 214.19 127.973 212.039C126.269 209.888 124.093 208.157 121.613 206.979C122.226 206.396 122.651 205.642 122.83 204.815C122.946 204.282 122.955 203.732 122.857 203.195C122.76 202.659 122.556 202.147 122.26 201.689C121.681 200.802 120.773 200.18 119.735 199.961L113.127 198.581C112.063 198.374 110.96 198.595 110.058 199.195C109.156 199.795 108.528 200.727 108.31 201.787C108.242 202.112 108.212 202.444 108.221 202.776C101.852 207.011 97.271 211.397 94.3767 216.055Z" fill="#1ABC9C"/>
<path d="M112.905 197.777C119.978 197.777 125.712 192.052 125.712 184.991C125.712 177.929 119.978 172.205 112.905 172.205C105.832 172.205 100.099 177.929 100.099 184.991C100.099 192.052 105.832 197.777 112.905 197.777Z" fill="#FFB9B9"/>
<path d="M104.923 196.014C103.557 195.082 102.163 193.293 101.232 191.951C99.9982 190.188 99.1492 188.186 98.7401 186.074C98.3311 183.962 98.371 181.788 98.8574 179.693C99.0125 178.855 99.3936 178.075 99.9598 177.438C100.563 176.842 101.548 176.559 102.284 176.981C102.084 176.443 101.995 175.871 102.025 175.298C102.054 174.726 102.201 174.165 102.455 173.651C102.973 172.625 103.723 171.734 104.645 171.047C106.41 169.691 108.509 168.836 110.72 168.575C112.932 168.314 115.173 168.655 117.206 169.563C118.006 169.933 116.692 167.075 117.529 167.351C118.361 167.672 119.286 167.656 120.106 167.306C120.894 166.91 123.503 169.261 123.201 168.434C123.799 168.705 124.318 169.123 124.71 169.648C125.103 170.173 125.356 170.789 125.446 171.438C125.536 172.087 125.46 172.748 125.225 173.36C124.99 173.972 124.604 174.514 124.102 174.937C123.441 175.494 122.616 175.815 121.892 176.287C120.625 177.177 119.727 178.501 119.37 180.007C119.012 181.513 119.219 183.097 119.952 184.461C119.19 183.973 118.355 183.611 117.478 183.388C117.038 183.281 116.578 183.28 116.138 183.386C115.698 183.492 115.289 183.701 114.946 183.996C114.659 184.324 114.443 184.706 114.31 185.121C114.177 185.535 114.13 185.972 114.172 186.404C114.2 187.272 114.407 188.127 114.43 188.995C114.498 191.541 115.864 196.382 113.887 197.736C112.325 198.805 106.787 197.286 104.923 196.014Z" fill="#2F2E41"/>
<path d="M297.806 94.7935C297.806 95.6932 297.776 96.593 297.713 97.4841C297.646 98.5499 297.532 99.6082 297.375 100.659C296.852 104.198 295.852 107.65 294.403 110.921L294.18 111.409L294.068 111.653C294.03 111.735 293.99 111.816 293.953 111.894C293.901 112.001 293.852 112.105 293.803 112.208C293.739 112.338 293.676 112.467 293.61 112.597C293.602 112.612 293.595 112.631 293.584 112.649C293.528 112.761 293.477 112.867 293.417 112.978C293.406 113.003 293.394 113.026 293.38 113.049C293.317 113.175 293.25 113.304 293.183 113.43C293.108 113.563 293.039 113.7 292.965 113.834C292.787 114.163 292.602 114.488 292.412 114.814C292.357 114.911 292.3 115.007 292.242 115.103C292.19 115.192 292.138 115.281 292.083 115.369C292.045 115.429 292.008 115.492 291.97 115.551C291.911 115.651 291.851 115.747 291.788 115.847C291.651 116.065 291.511 116.284 291.373 116.502H291.369C291.306 116.602 291.239 116.702 291.173 116.798V116.802C290.977 117.098 290.773 117.394 290.569 117.686C290.568 117.686 290.567 117.687 290.566 117.687C290.565 117.688 290.565 117.689 290.565 117.69C290.402 117.927 290.232 118.156 290.065 118.386V118.39C289.952 118.534 289.846 118.682 289.734 118.826C289.646 118.945 289.553 119.067 289.46 119.185C289.442 119.211 289.419 119.233 289.401 119.26V119.264C289.375 119.298 289.349 119.327 289.323 119.361C288.93 119.864 288.525 120.356 288.107 120.837L288.04 120.915C288.018 120.941 287.992 120.967 287.97 120.996C287.932 121.037 287.899 121.077 287.862 121.118C287.826 121.159 287.792 121.2 287.755 121.241C285.578 123.689 283.109 125.863 280.404 127.713C280.045 127.961 279.678 128.201 279.311 128.435C279.218 128.494 279.125 128.553 279.033 128.609C279.007 128.627 278.977 128.646 278.952 128.664C278.9 128.694 278.851 128.724 278.801 128.757C278.751 128.79 278.705 128.816 278.653 128.846C278.457 128.968 278.257 129.087 278.056 129.205C278.008 129.235 277.956 129.264 277.906 129.294C277.856 129.323 277.806 129.349 277.756 129.379C277.756 129.383 277.756 129.383 277.752 129.383H277.749V129.386H277.745C277.496 129.531 277.244 129.671 276.989 129.808C276.851 129.883 276.711 129.958 276.569 130.03C276.251 130.204 275.928 130.37 275.606 130.53C275.491 130.585 275.372 130.642 275.257 130.7C275.161 130.744 275.065 130.793 274.968 130.837C274.938 130.851 274.912 130.863 274.887 130.878C274.805 130.915 274.727 130.953 274.646 130.99C274.557 131.031 274.468 131.072 274.383 131.112C274.282 131.157 274.186 131.201 274.086 131.242C273.715 131.408 273.341 131.568 272.967 131.719C271.625 132.268 270.254 132.743 268.86 133.14C268.797 133.159 268.73 133.178 268.663 133.196C268.066 133.362 267.466 133.514 266.861 133.651C265.805 133.895 264.738 134.095 263.662 134.251H263.655L263.269 134.306C263.258 134.306 263.247 134.31 263.231 134.31C263.231 134.314 263.231 134.314 263.228 134.31L262.801 134.365C262.792 134.368 262.782 134.369 262.772 134.369C262.639 134.387 262.501 134.402 262.368 134.417L261.934 134.461L261.601 134.495C261.591 134.498 261.581 134.499 261.571 134.498C261.471 134.506 261.371 134.517 261.271 134.524H261.256L260.997 134.546C259.962 134.628 258.925 134.665 257.872 134.665C256.734 134.665 255.603 134.621 254.487 134.524H254.476L253.761 134.458C253.698 134.45 253.638 134.446 253.575 134.439C253.564 134.439 253.549 134.435 253.538 134.435C253.519 134.432 253.5 134.432 253.478 134.428C253.468 134.428 253.458 134.427 253.449 134.424C253.367 134.417 253.286 134.406 253.201 134.398L252.923 134.365C252.83 134.354 252.737 134.339 252.645 134.327C252.623 134.324 252.604 134.324 252.582 134.32C252.515 134.312 252.449 134.302 252.382 134.29L252.285 134.279C252.218 134.268 252.155 134.261 252.089 134.249H252.085C250.051 133.957 248.043 133.506 246.08 132.9C245.977 132.866 245.873 132.837 245.769 132.804C245.765 132.804 245.761 132.8 245.758 132.8C245.728 132.789 245.695 132.781 245.665 132.77C245.387 132.681 245.113 132.589 244.839 132.493C244.461 132.367 244.088 132.23 243.712 132.089C243.612 132.049 243.512 132.012 243.412 131.971C243.208 131.893 243.008 131.812 242.808 131.73C242.467 131.593 242.126 131.449 241.788 131.301C241.473 131.16 241.162 131.02 240.85 130.872C240.842 130.868 240.831 130.868 240.824 130.86C240.753 130.827 240.683 130.794 240.616 130.76H240.612C238.905 129.942 237.259 129.004 235.686 127.951C235.182 127.615 234.685 127.267 234.196 126.908C233.803 126.615 233.417 126.319 233.032 126.016C231.13 124.506 229.369 122.826 227.772 120.998V120.994C227.657 120.868 227.55 120.739 227.438 120.609C227.42 120.59 227.405 120.571 227.39 120.557C227.32 120.472 227.253 120.391 227.183 120.309V120.306C227.09 120.198 226.997 120.087 226.908 119.976C226.886 119.95 226.867 119.928 226.849 119.906V119.902C226.774 119.813 226.704 119.724 226.63 119.632C226.593 119.587 226.56 119.543 226.523 119.498V119.495C226.304 119.221 226.093 118.947 225.882 118.666C225.826 118.591 225.769 118.516 225.711 118.436C225.444 118.077 225.185 117.711 224.933 117.345V117.341C224.836 117.204 224.745 117.064 224.647 116.926L224.37 116.505C224.277 116.357 224.182 116.212 224.088 116.064L224.077 116.042C223.984 115.901 223.891 115.753 223.802 115.609C223.732 115.491 223.661 115.376 223.591 115.261C223.546 115.184 223.498 115.106 223.454 115.024C223.436 114.999 223.42 114.973 223.406 114.947L223.094 114.403C222.972 114.192 222.853 113.977 222.735 113.762C222.69 113.673 222.642 113.585 222.594 113.496C222.575 113.466 222.56 113.437 222.546 113.407C222.49 113.303 222.433 113.196 222.383 113.089C222.332 112.981 222.27 112.878 222.216 112.77C222.162 112.663 222.109 112.559 222.057 112.452C222.016 112.371 221.979 112.289 221.938 112.208C221.935 112.201 221.932 112.195 221.927 112.189C221.909 112.148 221.889 112.112 221.875 112.075C221.871 112.069 221.867 112.063 221.864 112.056C221.823 111.975 221.786 111.89 221.745 111.808C221.693 111.701 221.645 111.59 221.595 111.483C221.562 111.408 221.524 111.333 221.491 111.253C221.443 111.146 221.391 111.038 221.347 110.927C221.295 110.815 221.247 110.706 221.199 110.59C221.184 110.562 221.172 110.534 221.161 110.505C221.135 110.453 221.117 110.401 221.094 110.349C221.035 110.213 220.975 110.072 220.92 109.935C220.853 109.779 220.79 109.62 220.732 109.465C220.673 109.32 220.617 109.172 220.562 109.024L220.54 108.972C219.676 106.701 219.021 104.356 218.582 101.967V101.963C218.335 100.599 218.158 99.2222 218.052 97.8395C218.049 97.7619 218.041 97.6895 218.038 97.6145C217.971 96.6773 217.941 95.7401 217.941 94.7946C217.941 94.3763 217.949 93.962 217.96 93.5474C218.218 84.8789 221.314 76.5338 226.774 69.7887C226.893 69.6406 227.011 69.4925 227.134 69.3444C227.256 69.1963 227.382 69.052 227.504 68.9077C231.568 64.1567 236.693 60.4254 242.465 58.0147C248.238 55.6039 254.498 54.5811 260.739 55.0288C266.98 55.4764 273.029 57.3819 278.398 60.5918C283.766 63.8016 288.304 68.2258 291.645 73.5079C291.827 73.7966 292.009 74.089 292.183 74.3814C292.357 74.6738 292.531 74.9733 292.702 75.2732C296.06 81.2329 297.819 87.9573 297.809 94.795L297.806 94.7935Z" fill="#F2F2F2"/>
<path d="M273.586 72.9178C273.615 72.9126 273.644 72.9085 273.673 72.9032C273.55 72.8274 273.435 72.7405 273.328 72.6438L273.586 72.9178Z" fill="white"/>
<path d="M251.211 111.023L261.336 109.913L263.746 118.768L254.157 121.015L251.211 111.023Z" fill="#ED9DA0"/>
<path d="M253.738 113.72C260.363 113.72 265.733 108.239 265.733 101.478C265.733 94.7167 260.363 89.2358 253.738 89.2358C247.114 89.2358 241.744 94.7167 241.744 101.478C241.744 108.239 247.114 113.72 253.738 113.72Z" fill="#ED9DA0"/>
<path d="M279.334 129.612C278.987 129.802 278.635 129.983 278.283 130.156C278.158 130.217 278.028 130.278 277.903 130.342C277.798 130.39 277.693 130.443 277.588 130.492C277.556 130.508 277.528 130.52 277.499 130.536C277.41 130.577 277.325 130.617 277.236 130.657C277.139 130.702 277.043 130.746 276.95 130.79C276.84 130.839 276.735 130.887 276.626 130.931C276.222 131.113 275.814 131.286 275.406 131.452C273.944 132.05 272.45 132.567 270.93 133C270.861 133.021 270.788 133.041 270.716 133.061C270.065 133.242 269.411 133.408 268.753 133.557C267.601 133.823 266.439 134.041 265.266 134.21H265.258L264.838 134.27C264.826 134.27 264.814 134.275 264.798 134.275C264.798 134.279 264.798 134.279 264.793 134.275L264.329 134.335C264.319 134.338 264.308 134.34 264.297 134.339C264.151 134.359 264.002 134.377 263.856 134.392L263.383 134.44L263.02 134.477C263.01 134.481 262.999 134.482 262.988 134.482C262.878 134.489 262.77 134.502 262.661 134.51H262.645L262.362 134.534C261.235 134.623 260.104 134.663 258.956 134.663C257.717 134.663 256.484 134.615 255.268 134.51H255.258L254.478 134.437C254.41 134.429 254.345 134.425 254.276 134.417C254.264 134.417 254.248 134.413 254.236 134.413C254.216 134.408 254.195 134.408 254.171 134.404C254.16 134.405 254.149 134.403 254.139 134.4C254.05 134.392 253.961 134.38 253.868 134.372L253.565 134.335C253.464 134.323 253.363 134.306 253.262 134.294C253.238 134.29 253.218 134.29 253.193 134.286C253.121 134.278 253.048 134.266 252.975 134.254L252.87 134.242C252.797 134.23 252.729 134.222 252.656 134.21H252.652C250.435 133.891 248.247 133.399 246.108 132.738C245.995 132.7 245.882 132.669 245.77 132.633C246.291 130.204 247.365 127.928 248.908 125.979C250.451 124.031 252.422 122.463 254.669 121.396C254.113 120.867 253.729 120.184 253.566 119.436C253.461 118.953 253.453 118.454 253.541 117.968C253.63 117.482 253.814 117.019 254.083 116.604C254.607 115.8 255.43 115.238 256.369 115.039L262.355 113.789C263.318 113.601 264.317 113.801 265.134 114.345C265.952 114.889 266.521 115.732 266.718 116.693C266.779 116.987 266.806 117.288 266.799 117.588C272.563 121.421 276.713 125.393 279.334 129.612Z" fill="#1ABC9C"/>
<path d="M285.834 96.1683C283.795 93.7945 282.826 90.6451 281.196 87.9497C279.566 85.2543 276.729 82.8415 273.733 83.4691C271.668 83.9017 270.071 85.7214 269.265 87.7499C268.458 89.7784 268.305 92.0161 268.164 94.2077C268.214 89.7034 265.241 85.3367 261.147 83.8983C257.053 82.4599 252.153 84.0644 249.582 87.6847C248.459 86.6457 246.994 86.0542 245.463 86.0221C243.933 85.9901 242.444 86.5197 241.279 87.5107C238.977 89.5643 238.468 93.4714 240.16 96.0918C241.853 98.7123 245.518 99.687 248.207 98.2343L249.158 99.1074C248.623 100.976 249.661 103.184 251.405 103.888C252.82 104.458 254.817 104.363 255.348 105.846C255.718 106.881 255.027 107.987 254.291 108.783C253.555 109.579 252.682 110.4 252.594 111.502C252.461 113.164 254.18 114.328 255.744 114.678C259.514 115.524 263.698 113.78 265.871 110.459C265.913 110.395 265.958 110.33 266.007 110.266C267.227 108.71 268.115 106.921 268.619 105.01C269.122 103.099 269.23 101.106 268.936 99.1517C268.814 98.3839 268.936 97.8129 269.468 97.6311C271.758 96.8439 278.179 98.4934 280.123 99.9854C282.067 101.477 283.623 103.449 285.493 105.036C287.363 106.623 289.75 107.848 292.126 107.415C294.03 107.069 295.649 105.691 296.738 104.025C297.827 102.36 298.454 100.421 299.015 98.4933C294.804 100.921 289.043 99.9044 285.834 96.1683Z" fill="#2F2E41"/>
<path d="M39.2404 69.9981C39.2404 70.8978 39.2701 71.7976 39.3331 72.6887C39.4 73.7545 39.5149 74.8128 39.6711 75.8639C40.1943 79.4028 41.1942 82.8547 42.6438 86.1261L42.8661 86.6134L42.9787 86.8578C43.0163 86.9392 43.0565 87.0205 43.0936 87.0985C43.1455 87.2057 43.1939 87.3096 43.2438 87.413C43.3069 87.5427 43.37 87.6721 43.4365 87.8018C43.444 87.8164 43.4511 87.8352 43.4624 87.8535C43.5179 87.966 43.5698 88.0717 43.6291 88.1831C43.6401 88.2073 43.6527 88.2308 43.6666 88.2535C43.7297 88.3795 43.7966 88.5088 43.863 88.6348C43.9381 88.7679 44.0076 88.9051 44.0816 89.0382C44.2595 89.3677 44.4447 89.6931 44.6339 90.0189C44.6895 90.1152 44.7465 90.2112 44.8044 90.3075C44.8562 90.3964 44.908 90.4852 44.9636 90.5741C45.0011 90.6333 45.0387 90.6963 45.0762 90.7555C45.1355 90.8556 45.1949 90.9516 45.258 91.0517C45.395 91.2699 45.5358 91.4884 45.6732 91.7066H45.677C45.7401 91.8067 45.8065 91.9064 45.8734 92.0028V92.0065C46.0698 92.3027 46.2736 92.5985 46.4775 92.8909C46.4784 92.8905 46.4793 92.8905 46.4802 92.8909C46.4805 92.8917 46.4805 92.8926 46.4802 92.8935C46.6431 93.1304 46.8136 93.3598 46.9807 93.5893V93.593C47.0933 93.7374 47.1992 93.8854 47.3108 94.0298C47.3997 94.1482 47.4925 94.2704 47.5849 94.3889C47.6033 94.4148 47.6258 94.4369 47.6442 94.4639V94.4676C47.6701 94.501 47.696 94.5306 47.7219 94.564C48.1149 95.0673 48.5202 95.5595 48.9377 96.0406L49.0046 96.1183C49.0267 96.1441 49.0526 96.17 49.0752 96.1996C49.1127 96.2405 49.1458 96.281 49.1826 96.3218C49.2194 96.3627 49.2532 96.4032 49.29 96.444C51.467 98.8924 53.9354 101.066 56.6405 102.917C57.0002 103.165 57.3671 103.404 57.7339 103.638C57.8267 103.698 57.9194 103.757 58.0118 103.812C58.0377 103.831 58.0674 103.85 58.0933 103.868C58.1451 103.897 58.1935 103.927 58.2435 103.96C58.2934 103.994 58.34 104.02 58.3918 104.049C58.5882 104.172 58.7883 104.29 58.9884 104.408C59.0365 104.438 59.0887 104.468 59.1386 104.497C59.1886 104.527 59.2389 104.553 59.2888 104.582C59.2888 104.586 59.2888 104.586 59.2926 104.586H59.2963V104.59H59.3001C59.5484 104.734 59.8005 104.875 60.0563 105.012C60.1934 105.087 60.3342 105.162 60.4754 105.234C60.7942 105.408 61.1167 105.574 61.4392 105.733C61.5541 105.789 61.6728 105.846 61.7877 105.904C61.8842 105.948 61.9803 105.996 62.0768 106.04C62.1065 106.055 62.1324 106.066 62.1583 106.081C62.2398 106.119 62.3175 106.156 62.3994 106.194C62.4884 106.235 62.5774 106.275 62.6622 106.316C62.7625 106.36 62.8586 106.405 62.9588 106.446C63.3294 106.612 63.7038 106.771 64.0782 106.923C65.4199 107.472 66.791 107.946 68.1853 108.344C68.2483 108.362 68.3148 108.381 68.3816 108.399C68.9784 108.566 69.5792 108.718 70.184 108.855C71.2404 109.099 72.3066 109.299 73.3828 109.454H73.3903L73.7759 109.51C73.7872 109.51 73.7981 109.514 73.8135 109.514C73.8135 109.517 73.8134 109.517 73.8172 109.514L74.2434 109.569C74.253 109.572 74.263 109.573 74.2731 109.573C74.4064 109.591 74.5438 109.606 74.6771 109.621L75.1108 109.665L75.4442 109.698C75.4537 109.702 75.4638 109.703 75.4739 109.702C75.5741 109.71 75.674 109.721 75.7743 109.728H75.7889L76.0484 109.75C77.0825 109.832 78.1203 109.869 79.1732 109.869C80.3113 109.869 81.4415 109.824 82.5574 109.728H82.5687L83.284 109.661C83.3471 109.654 83.4064 109.65 83.4695 109.643C83.4808 109.643 83.4954 109.639 83.507 109.639C83.5254 109.635 83.5446 109.635 83.5664 109.632C83.5764 109.632 83.5864 109.631 83.596 109.628C83.6775 109.62 83.759 109.61 83.8442 109.602L84.1221 109.569C84.2148 109.558 84.3076 109.543 84.4 109.531C84.4221 109.528 84.4409 109.528 84.4631 109.524C84.5299 109.516 84.5963 109.505 84.6632 109.494L84.7597 109.483C84.8265 109.472 84.8892 109.465 84.9561 109.453H84.9598C86.9938 109.161 89.0016 108.71 90.9646 108.104C91.0683 108.07 91.1723 108.041 91.2759 108.007C91.2797 108.007 91.2834 108.004 91.2872 108.004C91.3168 107.992 91.3502 107.985 91.3799 107.974C91.6578 107.885 91.9323 107.793 92.206 107.697C92.5841 107.571 92.957 107.434 93.3325 107.293C93.4327 107.252 93.5326 107.216 93.6328 107.175C93.8367 107.097 94.0369 107.016 94.237 106.934C94.5779 106.797 94.9189 106.653 95.2565 106.505C95.5715 106.364 95.8828 106.224 96.1952 106.076C96.2027 106.072 96.2136 106.072 96.2211 106.064C96.2917 106.031 96.3619 105.998 96.4287 105.964H96.4325C98.1396 105.146 99.7859 104.208 101.359 103.155C101.863 102.819 102.36 102.471 102.849 102.112C103.242 101.819 103.627 101.523 104.013 101.22C105.915 99.7094 107.675 98.0297 109.273 96.2015V96.1977C109.388 96.0718 109.495 95.9424 109.606 95.8127C109.625 95.7943 109.64 95.7752 109.654 95.761C109.725 95.6759 109.791 95.5945 109.862 95.5132V95.5094C109.955 95.4022 110.047 95.2913 110.136 95.1799C110.158 95.154 110.177 95.1319 110.195 95.1094V95.1057C110.27 95.0168 110.34 94.928 110.414 94.8354C110.451 94.7912 110.484 94.7465 110.521 94.7023V94.6986C110.74 94.4249 110.951 94.1508 111.162 93.8697C111.218 93.7947 111.275 93.7197 111.333 93.6403C111.6 93.2811 111.859 92.9149 112.111 92.5486V92.5448C112.208 92.408 112.299 92.2674 112.397 92.1302L112.675 91.7085C112.767 91.5604 112.862 91.4161 112.956 91.268L112.967 91.2459C113.06 91.1053 113.153 90.9572 113.242 90.8129C113.312 90.6944 113.382 90.5797 113.453 90.465C113.497 90.3874 113.546 90.3094 113.59 90.2281C113.607 90.203 113.623 90.1771 113.638 90.1505L113.949 89.6065C114.072 89.3954 114.19 89.181 114.309 88.9662C114.353 88.8773 114.402 88.7885 114.45 88.6996C114.468 88.67 114.483 88.6404 114.498 88.6108C114.554 88.5073 114.611 88.3997 114.661 88.2925C114.711 88.1853 114.774 88.0815 114.828 87.9742C114.882 87.867 114.935 87.7632 114.987 87.656C115.028 87.5746 115.065 87.4933 115.106 87.4115C115.108 87.4049 115.112 87.3988 115.117 87.3932C115.135 87.3523 115.154 87.3156 115.169 87.2785C115.173 87.2729 115.177 87.2667 115.18 87.2601C115.221 87.1787 115.258 87.0936 115.299 87.0123C115.35 86.9051 115.399 86.7941 115.449 86.6865C115.482 86.6115 115.519 86.5366 115.552 86.4571C115.6 86.3499 115.653 86.2423 115.697 86.1313C115.749 86.0188 115.797 85.9094 115.845 85.7939C115.859 85.7662 115.872 85.7378 115.883 85.7088C115.909 85.6571 115.927 85.6053 115.95 85.5532C116.009 85.4164 116.068 85.2758 116.124 85.1386C116.191 84.983 116.254 84.8241 116.312 84.6685C116.371 84.5242 116.426 84.3761 116.482 84.228L116.504 84.1763C117.368 81.9052 118.023 79.5603 118.461 77.1708V77.167C118.709 75.8024 118.886 74.426 118.991 73.0433C118.995 72.9657 119.003 72.8934 119.006 72.8184C119.073 71.8812 119.103 70.944 119.103 69.9985C119.103 69.5801 119.095 69.1659 119.085 68.7512C118.826 60.0828 115.73 51.7376 110.27 44.9925C110.151 44.8444 110.033 44.6964 109.91 44.5483C109.788 44.4002 109.662 44.2559 109.54 44.1115C105.476 39.3606 100.352 35.6293 94.5787 33.2185C88.8059 30.8078 82.5465 29.785 76.3051 30.2326C70.0637 30.6803 64.015 32.5858 58.6466 35.7956C53.2782 39.0054 48.7403 43.4297 45.3988 48.7118C45.217 49.0004 45.0357 49.2928 44.8614 49.5852C44.6872 49.8776 44.513 50.1772 44.3425 50.4771C40.9849 56.4366 39.2259 63.1609 39.2359 69.9985L39.2404 69.9981Z" fill="#F2F2F2"/>
<path d="M63.4613 48.1224C63.432 48.1172 63.4027 48.1131 63.3738 48.1078C63.4964 48.032 63.6119 47.9451 63.7189 47.8484L63.4613 48.1224Z" fill="white"/>
<path d="M77.0704 80.6768H86.3825L85.986 92.7184L75.446 91.8945L77.0704 80.6768Z" fill="#9E616A"/>
<path d="M60.4799 104.905C60.8433 105.106 61.2106 105.297 61.5782 105.48C61.7092 105.544 61.8444 105.608 61.9754 105.677C62.0854 105.727 62.1951 105.783 62.3051 105.834C62.3389 105.851 62.3686 105.864 62.3979 105.881C62.491 105.924 62.5796 105.966 62.6723 106.009C62.7737 106.056 62.8751 106.102 62.9727 106.149C63.0854 106.2 63.198 106.252 63.3107 106.299C63.7331 106.491 64.16 106.674 64.5873 106.848C66.1159 107.48 67.6786 108.026 69.2682 108.484C69.3399 108.505 69.4161 108.526 69.4935 108.547C70.1736 108.739 70.858 108.914 71.5466 109.072C72.7507 109.353 73.966 109.583 75.1926 109.762H75.2009L75.6402 109.826C75.653 109.826 75.6657 109.83 75.6826 109.83C75.6826 109.834 75.6826 109.834 75.6868 109.83L76.1726 109.894C76.1836 109.897 76.195 109.898 76.2064 109.898C76.3585 109.919 76.5147 109.935 76.6668 109.953L77.1609 110.004L77.5413 110.042C77.5521 110.045 77.5637 110.047 77.5751 110.046C77.6877 110.054 77.8034 110.067 77.9172 110.076H77.9341L78.2299 110.101C79.4086 110.195 80.5914 110.237 81.7914 110.237C83.0884 110.237 84.3771 110.186 85.6485 110.075H85.6612L86.4764 110C86.5481 109.992 86.6157 109.988 86.6878 109.979C86.7006 109.979 86.7175 109.975 86.7302 109.975C86.7513 109.971 86.7727 109.971 86.7978 109.966C86.8092 109.967 86.8207 109.965 86.8316 109.962C86.9247 109.954 87.0194 109.941 87.1147 109.933L87.4317 109.895C87.5372 109.882 87.6431 109.865 87.7486 109.852C87.7741 109.848 87.7951 109.848 87.8203 109.844C87.8954 109.835 87.9705 109.822 88.0486 109.81L88.1586 109.797C88.2337 109.784 88.3065 109.776 88.3839 109.763H88.388C90.7061 109.425 92.9938 108.904 95.2294 108.205C95.3477 108.168 95.466 108.133 95.5843 108.093C95.045 105.536 93.9255 103.138 92.312 101.081C90.6985 99.0238 88.6339 97.3639 86.277 96.2287C86.8593 95.6687 87.2609 94.9481 87.4305 94.1589C87.6521 93.1303 87.4578 92.0559 86.8898 91.1696C86.6199 90.7505 86.2697 90.3889 85.8594 90.1053C85.449 89.8218 84.9866 89.622 84.4987 89.5175L78.2378 88.1975C77.2258 88.0025 76.1776 88.2156 75.3226 88.7902C74.4675 89.3648 73.8752 90.2542 73.6753 91.2637C73.6114 91.5746 73.5831 91.8918 73.5908 92.2091C67.5604 96.2549 63.2217 100.451 60.4799 104.905Z" fill="#1ABC9C"/>
<path d="M79.852 87.524C87.2367 87.524 93.2232 81.5472 93.2232 74.1744C93.2232 66.8016 87.2367 60.8247 79.852 60.8247C72.4674 60.8247 66.4809 66.8016 66.4809 74.1744C66.4809 81.5472 72.4674 87.524 79.852 87.524Z" fill="#9E616A"/>
<path d="M77.9525 86.8107C74.605 87.7135 70.9143 86.5135 68.3024 84.2368C65.6905 81.9601 64.056 78.735 63.1143 75.403C62.4245 72.9629 62.0978 70.2543 63.186 67.9634C64.2742 65.6725 67.2037 64.1272 69.4627 65.2841C68.0689 63.6627 68.765 60.9808 70.3931 59.5941C72.0212 58.2074 74.2565 57.8092 76.3855 57.5918C79.4754 57.2762 82.6671 57.2409 85.6075 58.2404C88.548 59.2398 91.2192 61.4246 92.141 64.3885C93.0809 64.8254 94.1393 64.9387 95.1505 64.7108C96.1618 64.4829 97.0688 63.9265 97.7294 63.1289C97.9001 64.045 97.7634 64.9918 97.3406 65.8226C96.9177 66.6533 96.2323 67.3217 95.3905 67.7242L99.8964 66.2659C100.671 67.9034 99.3136 69.9297 97.5773 70.4541C95.8411 70.9786 93.9674 70.4054 92.3205 69.6477C90.6736 68.8901 89.0767 67.9326 87.2871 67.6372C85.4975 67.3418 83.3955 67.9158 82.5679 69.527C82.1343 70.3709 82.1117 71.3595 81.8602 72.2738C81.6086 73.1882 80.971 74.1366 80.0236 74.2116C79.4255 74.2588 78.8394 73.9406 78.2427 74.0058C77.8767 74.0779 77.5397 74.255 77.2729 74.5154C77.0062 74.7759 76.8212 75.1082 76.7408 75.472C76.5924 76.2016 76.5906 76.9534 76.7355 77.6838L77.88 86.4186L77.9525 86.8107Z" fill="#2F2E41"/>
<path d="M3.94599 119.775C4.47068 119.686 5.00874 119.715 5.52051 119.861C6.03228 120.007 6.50471 120.266 6.90296 120.618L6.92474 120.638L6.94501 120.62C7.32496 120.287 7.77174 120.038 8.25556 119.891C8.73937 119.744 9.24907 119.701 9.75066 119.766L9.89635 119.788C10.5285 119.896 11.1194 120.174 11.6064 120.591C12.0934 121.008 12.4584 121.548 12.6628 122.155C12.8672 122.762 12.9033 123.413 12.7674 124.039C12.6314 124.665 12.3285 125.243 11.8906 125.711L11.7839 125.82L11.7554 125.845L7.3374 130.214C7.23545 130.314 7.10041 130.375 6.95729 130.383C6.81417 130.392 6.67268 130.349 6.55901 130.262L6.50344 130.214L2.06329 125.821C1.59266 125.364 1.25795 124.785 1.09622 124.15C0.934492 123.515 0.952066 122.847 1.14699 122.221C1.34192 121.595 1.7066 121.035 2.20062 120.603C2.69465 120.172 3.29874 119.885 3.94599 119.775Z" fill="#1ABC9C"/>
<path d="M205.477 81.8883C205.023 81.8885 204.586 81.7155 204.256 81.4044C203.926 81.0932 203.727 80.6675 203.701 80.2149L203.697 80.1098V74.5085L209.299 78.2372L209.366 78.2746C209.447 78.3152 209.537 78.3364 209.628 78.3364C209.719 78.3364 209.808 78.3152 209.889 78.2746L209.957 78.2372L215.559 74.5085V80.1098C215.559 80.5631 215.385 80.9993 215.074 81.3289C214.762 81.6586 214.336 81.8566 213.883 81.8825L213.778 81.8883H205.477ZM203.961 73.2605C204.11 73.019 204.314 72.8166 204.557 72.6703C204.8 72.5241 205.075 72.4382 205.358 72.4199L205.477 72.4148H213.777C214.081 72.4148 214.38 72.4926 214.646 72.6407C214.911 72.7887 215.134 73.002 215.293 73.2605L209.626 77.0306L203.961 73.2605Z" fill="#1ABC9C"/>
<path d="M63.251 143.549C63.8802 143.549 64.4836 143.798 64.9285 144.243C65.3734 144.687 65.6233 145.289 65.6233 145.917V150.654C65.6233 151.283 65.3734 151.885 64.9285 152.329C64.4836 152.773 63.8802 153.023 63.251 153.023H60.4491L57.6251 154.715C57.54 154.766 57.4435 154.795 57.3443 154.799C57.2452 154.803 57.1466 154.782 57.0576 154.738C56.9686 154.695 56.892 154.629 56.8349 154.548C56.7778 154.467 56.7419 154.373 56.7306 154.275L56.7273 154.207V153.023H56.134C55.5255 153.023 54.9402 152.789 54.4993 152.371C54.0583 151.952 53.7953 151.38 53.7647 150.774L53.7617 150.654V145.917C53.7617 145.289 54.0116 144.687 54.4565 144.243C54.9014 143.798 55.5048 143.549 56.134 143.549H63.251ZM60.8787 148.878H57.3202C57.1629 148.878 57.012 148.94 56.9008 149.051C56.7896 149.162 56.7271 149.313 56.7271 149.47C56.7271 149.627 56.7896 149.778 56.9008 149.889C57.012 150 57.1629 150.062 57.3202 150.062H60.8787C61.036 150.062 61.1868 150 61.298 149.889C61.4093 149.778 61.4717 149.627 61.4717 149.47C61.4717 149.313 61.4093 149.162 61.298 149.051C61.1868 148.94 61.036 148.878 60.8787 148.878ZM62.0648 146.51H57.3202C57.1629 146.51 57.012 146.573 56.9008 146.684C56.7896 146.795 56.7271 146.946 56.7271 147.103C56.7271 147.26 56.7896 147.41 56.9008 147.521C57.012 147.632 57.1629 147.695 57.3202 147.695H62.0648C62.2221 147.695 62.373 147.632 62.4842 147.521C62.5954 147.41 62.6579 147.26 62.6579 147.103C62.6579 146.946 62.5954 146.795 62.4842 146.684C62.373 146.573 62.2221 146.51 62.0648 146.51Z" fill="#1ABC9C"/>
<path d="M57.3003 125.055C59.2546 125.055 60.8389 123.473 60.8389 121.522C60.8389 119.571 59.2546 117.989 57.3003 117.989C55.3459 117.989 53.7617 119.571 53.7617 121.522C53.7617 123.473 55.3459 125.055 57.3003 125.055Z" fill="#E6E6E6"/>
</g>
<defs>
<clipPath id="clip0_16_2873">
<rect width="300" height="222" fill="white"/>
</clipPath>
</defs>
</svg>
