<svg width="248" height="58" viewBox="0 0 248 58" fill="none" xmlns="http://www.w3.org/2000/svg">
<g filter="url(#filter0_f_358_4599)">
<path d="M197.516 33.0104V32.6094C197.516 31.0944 197.92 29.7005 198.728 28.4274C199.535 27.1416 200.712 26.0277 202.256 25.0857C203.801 24.1436 205.702 23.4116 207.959 22.8897C210.217 22.355 212.807 22.0876 215.73 22.0876C218.653 22.0876 221.255 22.355 223.536 22.8897C225.817 23.4116 227.73 24.1436 229.275 25.0857C230.843 26.0277 232.031 27.1416 232.839 28.4274C233.647 29.7005 234.051 31.0944 234.051 32.6094V33.0104C234.051 34.5126 233.647 35.9066 232.839 37.1923C232.031 38.4654 230.843 39.5793 229.275 40.5341C227.73 41.4761 225.829 42.2081 223.572 42.7301C221.314 43.252 218.724 43.513 215.801 43.513C212.878 43.513 210.276 43.252 207.995 42.7301C205.738 42.2081 203.825 41.4761 202.256 40.5341C200.712 39.5793 199.535 38.4654 198.728 37.1923C197.92 35.9066 197.516 34.5126 197.516 33.0104ZM207.781 32.6094V33.0104C207.781 33.8761 207.924 34.6844 208.209 35.4355C208.494 36.1866 208.946 36.8486 209.563 37.4215C210.205 37.9816 211.037 38.4208 212.059 38.7391C213.08 39.0573 214.328 39.2165 215.801 39.2165C217.227 39.2165 218.451 39.0573 219.473 38.7391C220.494 38.4208 221.314 37.9816 221.932 37.4215C222.55 36.8486 223.001 36.1866 223.287 35.4355C223.596 34.6844 223.75 33.8761 223.75 33.0104V32.6094C223.75 31.7692 223.596 30.9799 223.287 30.2415C223.001 29.4904 222.538 28.8284 221.896 28.2556C221.279 27.67 220.459 27.2117 219.437 26.8807C218.415 26.5497 217.18 26.3842 215.73 26.3842C214.28 26.3842 213.045 26.5497 212.023 26.8807C211.025 27.2117 210.205 27.67 209.563 28.2556C208.946 28.8284 208.494 29.4904 208.209 30.2415C207.924 30.9799 207.781 31.7692 207.781 32.6094Z" fill="#C7C7C7"/>
<path d="M178.579 43.513C175.584 43.513 172.899 43.2584 170.523 42.7492C168.147 42.2272 166.127 41.508 164.463 40.5914C162.824 39.6748 161.564 38.6118 160.685 37.4024C159.806 36.1803 159.366 34.8818 159.366 33.5069V32.743C159.366 31.1772 159.782 29.745 160.614 28.4465C161.445 27.148 162.634 26.0214 164.178 25.0666C165.747 24.1118 167.648 23.3798 169.881 22.8706C172.115 22.3486 174.634 22.0876 177.438 22.0876C180.171 22.0876 182.595 22.3295 184.709 22.8133C186.824 23.297 188.595 23.9845 190.021 24.8756C191.47 25.7667 192.563 26.8361 193.3 28.0837C194.036 29.3185 194.405 30.6934 194.405 32.2084C194.405 33.4739 193.379 34.4998 192.113 34.4998H165.584C164.571 34.4998 163.75 33.6791 163.75 32.6667C163.75 31.6542 164.571 30.8335 165.584 30.8335H183.897C184.129 30.8335 184.317 30.6454 184.317 30.4134C184.317 29.6495 184.056 28.9685 183.533 28.3701C183.034 27.7591 182.274 27.2753 181.252 26.9189C180.23 26.5624 178.923 26.3842 177.331 26.3842C175.977 26.3842 174.812 26.5433 173.838 26.8616C172.864 27.1798 172.068 27.6254 171.45 28.1983C170.856 28.7711 170.404 29.4459 170.095 30.2224C169.81 30.9862 169.667 31.8264 169.667 32.743V33.5069C169.667 34.3343 169.881 35.0982 170.309 35.7984C170.761 36.4985 171.39 37.1032 172.198 37.6124C173.03 38.1217 174.028 38.5163 175.192 38.7964C176.381 39.0764 177.723 39.2165 179.22 39.2165C181.074 39.2165 182.797 39.0255 184.389 38.6436C185.364 38.4054 186.257 38.0953 187.068 37.7132C188.017 37.2662 189.136 37.2031 190.042 37.7304L190.281 37.8694C191.842 38.7773 191.906 40.8823 190.234 41.5652C188.856 42.1381 187.193 42.6091 185.244 42.9783C183.296 43.3348 181.074 43.513 178.579 43.513Z" fill="#C7C7C7"/>
<path d="M146.167 26.9761V37.9983C146.167 40.8331 143.869 43.1311 141.035 43.1311C138.2 43.1311 135.902 40.8331 135.902 37.9983V27.6226C135.902 24.7767 138.209 22.4696 141.055 22.4696C143.636 22.4696 145.824 24.4186 146.167 26.9761ZM156.326 22.164C157.174 22.2185 157.766 22.9587 157.736 23.8075L157.673 25.6151C157.638 26.6074 156.784 27.3744 155.792 27.339C155.102 27.3008 154.473 27.2817 153.902 27.2817C152.453 27.2817 151.193 27.3835 150.124 27.5872C149.078 27.7782 148.199 28.0646 147.486 28.4465C146.797 28.8284 146.274 29.2931 145.918 29.8405C145.781 30.0654 145.669 30.3032 145.58 30.5539C145.369 31.1525 144.805 31.6217 144.179 31.5176C143.66 31.4314 143.273 30.9818 143.32 30.4582C143.409 29.4691 143.645 28.5439 144.029 27.6827C144.528 26.5497 145.253 25.5631 146.203 24.7229C147.177 23.8826 148.366 23.2334 149.768 22.7751C151.17 22.3168 152.774 22.0876 154.58 22.0876C155.15 22.0876 155.732 22.1131 156.326 22.164Z" fill="#C7C7C7"/>
<path d="M118.747 38.4717V29.2676C118.747 28.6056 118.545 28.0391 118.141 27.5681C117.737 27.0844 117.107 26.7088 116.252 26.4415C115.42 26.1741 114.339 26.0405 113.008 26.0405C111.868 26.0405 110.882 26.1487 110.05 26.3651C109.218 26.5688 108.576 26.8679 108.125 27.2626C107.464 27.8218 106.746 28.6184 105.88 28.6184H100.003C98.445 28.6184 97.2419 27.2387 98.3228 26.1168C99.0832 25.3275 100.188 24.6337 101.638 24.0354C103.087 23.4243 104.81 22.947 106.806 22.6032C108.826 22.2595 111.083 22.0876 113.579 22.0876C116.573 22.0876 119.234 22.355 121.563 22.8897C123.892 23.4243 125.722 24.2264 127.052 25.2957C128.407 26.3651 129.084 27.7018 129.084 29.3058V38.1471C129.084 39.2801 129.215 40.2095 129.476 40.9351C129.727 41.6181 130.086 42.2194 130.555 42.7388C130.594 42.7826 130.617 42.8393 130.617 42.8982C130.617 43.0268 130.512 43.1311 130.384 43.1311H122.653C121.12 43.1311 119.559 42.4936 119.104 41.0306C118.866 40.1776 118.747 39.3247 118.747 38.4717ZM118.581 30.547C119.426 30.547 120.117 31.2223 120.136 32.0677C120.156 32.9409 119.454 33.6596 118.581 33.6596H114.434C113.08 33.6596 111.903 33.7424 110.905 33.9079C109.907 34.0734 109.087 34.3089 108.446 34.6144C107.804 34.9072 107.329 35.2509 107.02 35.6456C106.735 36.0402 106.592 36.4731 106.592 36.9441C106.592 37.4151 106.794 37.8416 107.198 38.2235C107.602 38.5927 108.184 38.8855 108.945 39.1019C109.705 39.3056 110.596 39.4074 111.618 39.4074C113.163 39.4074 114.505 39.2419 115.646 38.9109C116.787 38.58 117.666 38.1726 118.284 37.6888C118.855 37.2584 120.066 36.9887 120.608 37.4549L121.144 37.9158C121.622 38.3269 121.707 39.0403 121.265 39.4905C121.016 39.7451 120.735 40.0038 120.422 40.2667C119.781 40.8269 118.961 41.3552 117.963 41.8517C116.965 42.3354 115.765 42.7365 114.363 43.0547C112.961 43.3602 111.297 43.513 109.373 43.513C106.925 43.513 104.703 43.252 102.707 42.7301C100.735 42.1954 99.1663 41.4634 98.002 40.5341C96.8613 39.592 96.291 38.5227 96.291 37.326C96.291 36.2439 96.6712 35.2828 97.4316 34.4426C98.1921 33.6023 99.3089 32.8958 100.782 32.3229C102.279 31.7373 104.145 31.2981 106.378 31.0053C108.612 30.6998 111.202 30.547 114.149 30.547H118.581Z" fill="#C7C7C7"/>
<path d="M62.9888 13.8C65.8235 13.8 68.1216 16.0981 68.1216 18.9329V37.9982C68.1216 40.833 65.8235 43.131 62.9888 43.131C60.154 43.131 57.856 40.833 57.856 37.9982V18.9329C57.856 16.0981 60.154 13.8 62.9888 13.8ZM66.8185 30.6905C66.6396 31.4406 66.035 32.0746 65.2638 32.0746C64.4836 32.0746 63.8414 31.4308 63.9809 30.6632C64.1451 29.7592 64.456 28.9057 64.9136 28.1027C65.6027 26.8806 66.5889 25.824 67.8721 24.9328C69.1553 24.029 70.688 23.3288 72.4702 22.8323C74.2762 22.3358 76.2723 22.0876 78.4585 22.0876C80.3595 22.0876 82.0824 22.234 83.627 22.5268C85.1953 22.8068 86.5379 23.2651 87.6548 23.9017C88.7954 24.5255 89.6746 25.3466 90.2925 26.365C90.9103 27.3834 91.2192 28.6183 91.2192 30.0696V37.9626C91.2192 40.817 88.9052 43.131 86.0508 43.131C83.1963 43.131 80.8823 40.817 80.8823 37.9626V30.0314C80.8823 29.1148 80.6328 28.3955 80.1338 27.8736C79.6585 27.3389 78.9575 26.9633 78.0308 26.7469C77.1278 26.5178 76.0109 26.4032 74.6802 26.4032C73.2069 26.4032 71.9474 26.5496 70.9019 26.8424C69.88 27.1352 69.0602 27.5426 68.4424 28.0645C67.8245 28.5737 67.373 29.1721 67.0879 29.8595C66.9762 30.1287 66.8864 30.4057 66.8185 30.6905Z" fill="#C7C7C7"/>
<path d="M41.8774 35.8556C41.8774 35.3591 41.7349 34.9135 41.4497 34.5189C41.1883 34.1115 40.6893 33.7423 39.9526 33.4113C39.216 33.0676 38.1823 32.7303 36.8516 32.3993C35.5208 32.0683 33.798 31.7245 31.6831 31.3681C29.3306 30.9607 27.0968 30.5024 24.9819 29.9932C22.8908 29.484 21.0373 28.892 19.4214 28.2173C17.8293 27.5299 16.5698 26.7342 15.6431 25.8303C14.7401 24.9265 14.2886 23.8762 14.2886 22.6796C14.2886 21.5211 14.7638 20.4708 15.7144 19.5288C16.6649 18.574 17.9956 17.7592 19.7065 17.0845C21.4175 16.3971 23.4373 15.8688 25.7661 15.4996C28.1187 15.1304 30.6969 14.9458 33.501 14.9458C37.3268 14.9458 40.6655 15.315 43.5171 16.0534C46.3687 16.7917 48.5786 17.8038 50.147 19.0896C52.3801 20.893 50.2082 23.5007 47.3378 23.5007H44.328C42.9943 23.5007 41.9165 22.2818 40.9507 21.362C40.3328 20.7382 39.3823 20.248 38.0991 19.8916C36.8397 19.5351 35.2476 19.3569 33.3228 19.3569C31.4692 19.3569 29.9246 19.5097 28.689 19.8152C27.4533 20.108 26.5265 20.509 25.9087 21.0182C25.2909 21.5147 24.9819 22.0749 24.9819 22.6986C24.9819 23.1697 25.1958 23.5961 25.6235 23.9781C26.075 24.36 26.7404 24.7164 27.6196 25.0474C28.4989 25.3784 29.5801 25.6903 30.8633 25.9831C32.1465 26.2759 33.6317 26.5623 35.3188 26.8424C38.1466 27.3007 40.6299 27.8163 42.7686 28.3892C44.931 28.962 46.737 29.6049 48.1865 30.3178C49.6361 31.0307 50.7292 31.8391 51.4658 32.743C52.2025 33.6468 52.5708 34.6716 52.5708 35.8174C52.5708 37.0268 52.1312 38.1089 51.252 39.0637C50.3727 40.0184 49.1014 40.8268 47.438 41.4888C45.7746 42.1508 43.7904 42.6536 41.4854 42.9974C39.1803 43.3411 36.6021 43.5129 33.7505 43.5129C31.1841 43.5129 28.6533 43.3347 26.1582 42.9783C23.6631 42.6091 21.3937 42.0553 19.3501 41.3169C17.3302 40.5786 15.7144 39.6365 14.5024 38.4908C12.6608 36.7497 14.7391 34.4234 17.2735 34.4234H21.044C22.3527 34.4234 23.3239 35.6144 24.1621 36.6194C24.6611 37.2177 25.3621 37.7015 26.2651 38.0707C27.1919 38.4399 28.285 38.7072 29.5444 38.8727C30.8276 39.0382 32.2297 39.1209 33.7505 39.1209C35.604 39.1209 37.1248 38.9809 38.313 38.7008C39.5249 38.4208 40.416 38.0325 40.9863 37.536C41.5804 37.0395 41.8774 36.4794 41.8774 35.8556Z" fill="#C7C7C7"/>
</g>
<g filter="url(#filter1_d_358_4599)">
<path d="M197.516 33.0104V32.6094C197.516 31.0944 197.92 29.7005 198.728 28.4274C199.535 27.1416 200.712 26.0277 202.256 25.0857C203.801 24.1436 205.702 23.4116 207.959 22.8897C210.217 22.355 212.807 22.0876 215.73 22.0876C218.653 22.0876 221.255 22.355 223.536 22.8897C225.817 23.4116 227.73 24.1436 229.275 25.0857C230.843 26.0277 232.031 27.1416 232.839 28.4274C233.647 29.7005 234.051 31.0944 234.051 32.6094V33.0104C234.051 34.5126 233.647 35.9066 232.839 37.1923C232.031 38.4654 230.843 39.5793 229.275 40.5341C227.73 41.4761 225.829 42.2081 223.572 42.7301C221.314 43.252 218.724 43.513 215.801 43.513C212.878 43.513 210.276 43.252 207.995 42.7301C205.738 42.2081 203.825 41.4761 202.256 40.5341C200.712 39.5793 199.535 38.4654 198.728 37.1923C197.92 35.9066 197.516 34.5126 197.516 33.0104ZM207.781 32.6094V33.0104C207.781 33.8761 207.924 34.6844 208.209 35.4355C208.494 36.1866 208.946 36.8486 209.563 37.4215C210.205 37.9816 211.037 38.4208 212.059 38.7391C213.08 39.0573 214.328 39.2165 215.801 39.2165C217.227 39.2165 218.451 39.0573 219.473 38.7391C220.494 38.4208 221.314 37.9816 221.932 37.4215C222.55 36.8486 223.001 36.1866 223.287 35.4355C223.596 34.6844 223.75 33.8761 223.75 33.0104V32.6094C223.75 31.7692 223.596 30.9799 223.287 30.2415C223.001 29.4904 222.538 28.8284 221.896 28.2556C221.279 27.67 220.459 27.2117 219.437 26.8807C218.415 26.5497 217.18 26.3842 215.73 26.3842C214.28 26.3842 213.045 26.5497 212.023 26.8807C211.025 27.2117 210.205 27.67 209.563 28.2556C208.946 28.8284 208.494 29.4904 208.209 30.2415C207.924 30.9799 207.781 31.7692 207.781 32.6094Z" fill="white"/>
<path d="M178.579 43.513C175.584 43.513 172.899 43.2584 170.523 42.7492C168.147 42.2272 166.127 41.508 164.463 40.5914C162.824 39.6748 161.564 38.6118 160.685 37.4024C159.806 36.1803 159.366 34.8818 159.366 33.5069V32.743C159.366 31.1772 159.782 29.745 160.614 28.4465C161.445 27.148 162.634 26.0214 164.178 25.0666C165.747 24.1118 167.648 23.3798 169.881 22.8706C172.115 22.3486 174.634 22.0876 177.438 22.0876C180.171 22.0876 182.595 22.3295 184.709 22.8133C186.824 23.297 188.595 23.9845 190.021 24.8756C191.47 25.7667 192.563 26.8361 193.3 28.0837C194.036 29.3185 194.405 30.6934 194.405 32.2084C194.405 33.4739 193.379 34.4998 192.113 34.4998H165.584C164.571 34.4998 163.75 33.6791 163.75 32.6667C163.75 31.6542 164.571 30.8335 165.584 30.8335H183.897C184.129 30.8335 184.317 30.6454 184.317 30.4134C184.317 29.6495 184.056 28.9685 183.533 28.3701C183.034 27.7591 182.274 27.2753 181.252 26.9189C180.23 26.5624 178.923 26.3842 177.331 26.3842C175.977 26.3842 174.812 26.5433 173.838 26.8616C172.864 27.1798 172.068 27.6254 171.45 28.1983C170.856 28.7711 170.404 29.4459 170.095 30.2224C169.81 30.9862 169.667 31.8264 169.667 32.743V33.5069C169.667 34.3343 169.881 35.0982 170.309 35.7984C170.761 36.4985 171.39 37.1032 172.198 37.6124C173.03 38.1217 174.028 38.5163 175.192 38.7964C176.381 39.0764 177.723 39.2165 179.22 39.2165C181.074 39.2165 182.797 39.0255 184.389 38.6436C185.364 38.4054 186.257 38.0953 187.068 37.7132C188.017 37.2662 189.136 37.2031 190.042 37.7304L190.281 37.8694C191.842 38.7773 191.906 40.8823 190.234 41.5652C188.856 42.1381 187.193 42.6091 185.244 42.9783C183.296 43.3348 181.074 43.513 178.579 43.513Z" fill="white"/>
<path d="M146.167 26.9761V37.9983C146.167 40.8331 143.869 43.1311 141.035 43.1311C138.2 43.1311 135.902 40.8331 135.902 37.9983V27.6226C135.902 24.7767 138.209 22.4696 141.055 22.4696C143.636 22.4696 145.824 24.4186 146.167 26.9761ZM156.326 22.164C157.174 22.2185 157.766 22.9587 157.736 23.8075L157.673 25.6151C157.638 26.6074 156.784 27.3744 155.792 27.339C155.102 27.3008 154.473 27.2817 153.902 27.2817C152.453 27.2817 151.193 27.3835 150.124 27.5872C149.078 27.7782 148.199 28.0646 147.486 28.4465C146.797 28.8284 146.274 29.2931 145.918 29.8405C145.781 30.0654 145.669 30.3032 145.58 30.5539C145.369 31.1525 144.805 31.6217 144.179 31.5176C143.66 31.4314 143.273 30.9818 143.32 30.4582C143.409 29.4691 143.645 28.5439 144.029 27.6827C144.528 26.5497 145.253 25.5631 146.203 24.7229C147.177 23.8826 148.366 23.2334 149.768 22.7751C151.17 22.3168 152.774 22.0876 154.58 22.0876C155.15 22.0876 155.732 22.1131 156.326 22.164Z" fill="white"/>
<path d="M118.747 38.4717V29.2676C118.747 28.6056 118.545 28.0391 118.141 27.5681C117.737 27.0844 117.107 26.7088 116.252 26.4415C115.42 26.1741 114.339 26.0405 113.008 26.0405C111.868 26.0405 110.882 26.1487 110.05 26.3651C109.218 26.5688 108.576 26.8679 108.125 27.2626C107.464 27.8218 106.746 28.6184 105.88 28.6184H100.003C98.445 28.6184 97.2419 27.2387 98.3228 26.1168C99.0832 25.3275 100.188 24.6337 101.638 24.0354C103.087 23.4243 104.81 22.947 106.806 22.6032C108.826 22.2595 111.083 22.0876 113.579 22.0876C116.573 22.0876 119.234 22.355 121.563 22.8897C123.892 23.4243 125.722 24.2264 127.052 25.2957C128.407 26.3651 129.084 27.7018 129.084 29.3058V38.1471C129.084 39.2801 129.215 40.2095 129.476 40.9351C129.727 41.6181 130.086 42.2194 130.555 42.7388C130.594 42.7826 130.617 42.8393 130.617 42.8982C130.617 43.0268 130.512 43.1311 130.384 43.1311H122.653C121.12 43.1311 119.559 42.4936 119.104 41.0306C118.866 40.1776 118.747 39.3247 118.747 38.4717ZM118.581 30.547C119.426 30.547 120.117 31.2223 120.136 32.0677C120.156 32.9409 119.454 33.6596 118.581 33.6596H114.434C113.08 33.6596 111.903 33.7424 110.905 33.9079C109.907 34.0734 109.087 34.3089 108.446 34.6144C107.804 34.9072 107.329 35.2509 107.02 35.6456C106.735 36.0402 106.592 36.4731 106.592 36.9441C106.592 37.4151 106.794 37.8416 107.198 38.2235C107.602 38.5927 108.184 38.8855 108.945 39.1019C109.705 39.3056 110.596 39.4074 111.618 39.4074C113.163 39.4074 114.505 39.2419 115.646 38.9109C116.787 38.58 117.666 38.1726 118.284 37.6888C118.855 37.2584 120.066 36.9887 120.608 37.4549L121.144 37.9158C121.622 38.3269 121.707 39.0403 121.265 39.4905C121.016 39.7451 120.735 40.0038 120.422 40.2667C119.781 40.8269 118.961 41.3552 117.963 41.8517C116.965 42.3354 115.765 42.7365 114.363 43.0547C112.961 43.3602 111.297 43.513 109.373 43.513C106.925 43.513 104.703 43.252 102.707 42.7301C100.735 42.1954 99.1663 41.4634 98.002 40.5341C96.8613 39.592 96.291 38.5227 96.291 37.326C96.291 36.2439 96.6712 35.2828 97.4316 34.4426C98.1921 33.6023 99.3089 32.8958 100.782 32.3229C102.279 31.7373 104.145 31.2981 106.378 31.0053C108.612 30.6998 111.202 30.547 114.149 30.547H118.581Z" fill="white"/>
<path d="M62.9888 13.8C65.8235 13.8 68.1216 16.0981 68.1216 18.9329V37.9982C68.1216 40.833 65.8235 43.131 62.9888 43.131C60.154 43.131 57.856 40.833 57.856 37.9982V18.9329C57.856 16.0981 60.154 13.8 62.9888 13.8ZM66.8185 30.6905C66.6396 31.4406 66.035 32.0746 65.2638 32.0746C64.4836 32.0746 63.8414 31.4308 63.9809 30.6632C64.1451 29.7592 64.456 28.9057 64.9136 28.1027C65.6027 26.8806 66.5889 25.824 67.8721 24.9328C69.1553 24.029 70.688 23.3288 72.4702 22.8323C74.2762 22.3358 76.2723 22.0876 78.4585 22.0876C80.3595 22.0876 82.0824 22.234 83.627 22.5268C85.1953 22.8068 86.5379 23.2651 87.6548 23.9017C88.7954 24.5255 89.6746 25.3466 90.2925 26.365C90.9103 27.3834 91.2192 28.6183 91.2192 30.0696V37.9626C91.2192 40.817 88.9052 43.131 86.0508 43.131C83.1963 43.131 80.8823 40.817 80.8823 37.9626V30.0314C80.8823 29.1148 80.6328 28.3955 80.1338 27.8736C79.6585 27.3389 78.9575 26.9633 78.0308 26.7469C77.1278 26.5178 76.0109 26.4032 74.6802 26.4032C73.2069 26.4032 71.9474 26.5496 70.9019 26.8424C69.88 27.1352 69.0602 27.5426 68.4424 28.0645C67.8245 28.5737 67.373 29.1721 67.0879 29.8595C66.9762 30.1287 66.8864 30.4057 66.8185 30.6905Z" fill="white"/>
<path d="M41.8774 35.8556C41.8774 35.3591 41.7349 34.9135 41.4497 34.5189C41.1883 34.1115 40.6893 33.7423 39.9526 33.4113C39.216 33.0676 38.1823 32.7303 36.8516 32.3993C35.5208 32.0683 33.798 31.7245 31.6831 31.3681C29.3306 30.9607 27.0968 30.5024 24.9819 29.9932C22.8908 29.484 21.0373 28.892 19.4214 28.2173C17.8293 27.5299 16.5698 26.7342 15.6431 25.8303C14.7401 24.9265 14.2886 23.8762 14.2886 22.6796C14.2886 21.5211 14.7638 20.4708 15.7144 19.5288C16.6649 18.574 17.9956 17.7592 19.7065 17.0845C21.4175 16.3971 23.4373 15.8688 25.7661 15.4996C28.1187 15.1304 30.6969 14.9458 33.501 14.9458C37.3268 14.9458 40.6655 15.315 43.5171 16.0534C46.3687 16.7917 48.5786 17.8038 50.147 19.0896C52.3801 20.893 50.2082 23.5007 47.3378 23.5007H44.328C42.9943 23.5007 41.9165 22.2818 40.9507 21.362C40.3328 20.7382 39.3823 20.248 38.0991 19.8916C36.8397 19.5351 35.2476 19.3569 33.3228 19.3569C31.4692 19.3569 29.9246 19.5097 28.689 19.8152C27.4533 20.108 26.5265 20.509 25.9087 21.0182C25.2909 21.5147 24.9819 22.0749 24.9819 22.6986C24.9819 23.1697 25.1958 23.5961 25.6235 23.9781C26.075 24.36 26.7404 24.7164 27.6196 25.0474C28.4989 25.3784 29.5801 25.6903 30.8633 25.9831C32.1465 26.2759 33.6317 26.5623 35.3188 26.8424C38.1466 27.3007 40.6299 27.8163 42.7686 28.3892C44.931 28.962 46.737 29.6049 48.1865 30.3178C49.6361 31.0307 50.7292 31.8391 51.4658 32.743C52.2025 33.6468 52.5708 34.6716 52.5708 35.8174C52.5708 37.0268 52.1312 38.1089 51.252 39.0637C50.3727 40.0184 49.1014 40.8268 47.438 41.4888C45.7746 42.1508 43.7904 42.6536 41.4854 42.9974C39.1803 43.3411 36.6021 43.5129 33.7505 43.5129C31.1841 43.5129 28.6533 43.3347 26.1582 42.9783C23.6631 42.6091 21.3937 42.0553 19.3501 41.3169C17.3302 40.5786 15.7144 39.6365 14.5024 38.4908C12.6608 36.7497 14.7391 34.4234 17.2735 34.4234H21.044C22.3527 34.4234 23.3239 35.6144 24.1621 36.6194C24.6611 37.2177 25.3621 37.7015 26.2651 38.0707C27.1919 38.4399 28.285 38.7072 29.5444 38.8727C30.8276 39.0382 32.2297 39.1209 33.7505 39.1209C35.604 39.1209 37.1248 38.9809 38.313 38.7008C39.5249 38.4208 40.416 38.0325 40.9863 37.536C41.5804 37.0395 41.8774 36.4794 41.8774 35.8556Z" fill="white"/>
</g>
<defs>
<filter id="filter0_f_358_4599" x="-0.000195503" y="4.86374e-05" width="247.851" height="57.3129" filterUnits="userSpaceOnUse" color-interpolation-filters="sRGB">
<feFlood flood-opacity="0" result="BackgroundImageFix"/>
<feBlend mode="normal" in="SourceGraphic" in2="BackgroundImageFix" result="shape"/>
<feGaussianBlur stdDeviation="6.9" result="effect1_foregroundBlur_358_4599"/>
</filter>
<filter id="filter1_d_358_4599" x="13.7998" y="13.8" width="220.251" height="32.7129" filterUnits="userSpaceOnUse" color-interpolation-filters="sRGB">
<feFlood flood-opacity="0" result="BackgroundImageFix"/>
<feColorMatrix in="SourceAlpha" type="matrix" values="0 0 0 0 0 0 0 0 0 0 0 0 0 0 0 0 0 0 127 0" result="hardAlpha"/>
<feOffset dy="3"/>
<feComposite in2="hardAlpha" operator="out"/>
<feColorMatrix type="matrix" values="0 0 0 0 0.101961 0 0 0 0 0.737255 0 0 0 0 0.611765 0 0 0 1 0"/>
<feBlend mode="normal" in2="BackgroundImageFix" result="effect1_dropShadow_358_4599"/>
<feBlend mode="normal" in="SourceGraphic" in2="effect1_dropShadow_358_4599" result="shape"/>
</filter>
</defs>
</svg>
